<svg width="76" height="76" viewBox="0 0 76 76" fill="none" xmlns="http://www.w3.org/2000/svg">
<path d="M76 38C76 58.9868 58.9868 76 38 76C17.0132 76 0 58.9868 0 38C0 17.0132 17.0132 0 38 0C58.9868 0 76 17.0132 76 38Z" fill="#4A4A4A"/>
<path d="M34.9875 58.4623V45.6735H38.3978V50.3911H58.4621V53.8015H38.3978V58.4623H34.9875ZM17.5378 53.8015V50.3911H31.5771V53.8015H17.5378ZM28.1668 44.3662V39.7054H17.5378V36.295H28.1668V31.5205H31.5771V44.3662H28.1668ZM34.9875 39.7054V36.295H58.4621V39.7054H34.9875ZM44.4228 30.3269V17.5381H47.8331V22.1989H58.4621V25.6093H47.8331V30.3269H44.4228ZM17.5378 25.6093V22.1989H41.0124V25.6093H17.5378Z" fill="white"/>
<path d="M34.5875 58.4623V58.8623H34.9875H38.3978H38.7978V58.4623V54.2015H58.4621H58.8621V53.8015V50.3911V49.9911H58.4621H38.7978V45.6735V45.2735H38.3978H34.9875H34.5875V45.6735V58.4623ZM37.9978 50.3911V50.7911H38.3978H58.0621V53.4015H38.3978H37.9978V53.8015V58.0623H35.3875V46.0735H37.9978V50.3911ZM17.1378 53.8015V54.2015H17.5378H31.5771H31.9771V53.8015V50.3911V49.9911H31.5771H17.5378H17.1378V50.3911V53.8015ZM27.7668 44.3662V44.7662H28.1668H31.5771H31.9771V44.3662V31.5205V31.1205H31.5771H28.1668H27.7668V31.5205V35.895H17.5378H17.1378V36.295V39.7054V40.1054H17.5378H27.7668V44.3662ZM28.5668 39.7054V39.3054H28.1668H17.9378V36.695H28.1668H28.5668V36.295V31.9205H31.1771V43.9662H28.5668V39.7054ZM34.5875 39.7054V40.1054H34.9875H58.4621H58.8621V39.7054V36.295V35.895H58.4621H34.9875H34.5875V36.295V39.7054ZM44.0228 30.3269V30.7269H44.4228H47.8331H48.2331V30.3269V26.0093H58.4621H58.8621V25.6093V22.1989V21.7989H58.4621H48.2331V17.5381V17.1381H47.8331H44.4228H44.0228V17.5381V30.3269ZM47.4331 22.1989V22.5989H47.8331H58.0621V25.2093H47.8331H47.4331V25.6093V29.9269H44.8228V17.9381H47.4331V22.1989ZM17.1378 25.6093V26.0093H17.5378H41.0124H41.4124V25.6093V22.1989V21.7989H41.0124H17.5378H17.1378V22.1989V25.6093ZM75.6 38C75.6 58.7659 58.7659 75.6 38 75.6C17.2341 75.6 0.4 58.7659 0.4 38C0.4 17.2341 17.2341 0.4 38 0.4C58.7659 0.4 75.6 17.2341 75.6 38ZM31.1771 53.4015H17.9378V50.7911H31.1771V53.4015ZM58.0621 39.3054H35.3875V36.695H58.0621V39.3054ZM40.6124 25.2093H17.9378V22.5989H40.6124V25.2093Z" stroke="#4A4A4A" stroke-width="0.8"/>
</svg>
