<svg width="76" height="76" viewBox="0 0 76 76" fill="none" xmlns="http://www.w3.org/2000/svg">
<path d="M76 38C76 58.9868 58.9868 76 38 76C17.0132 76 0 58.9868 0 38C0 17.0132 17.0132 0 38 0C58.9868 0 76 17.0132 76 38Z" fill="#4A4A4A"/>
<path d="M19.8115 58.4623V31.1795L38 17.5381L56.1885 31.1795V58.4623H52.7782V32.8847L38 21.801L23.2218 32.8847V58.4623H19.8115ZM30.0425 55.052H45.9575V48.7996H30.0425V55.052ZM30.0425 45.3893H45.9575V39.137H30.0425V45.3893ZM26.6322 58.4623V35.7266H49.3678V58.4623H26.6322Z" fill="white"/>
<path d="M19.4115 58.4623V58.8623H19.8115H23.2218H23.6218V58.4623V33.0847L38 22.301L52.3782 33.0847V58.4623V58.8623H52.7782H56.1885H56.5885V58.4623V31.1795V30.9795L56.4285 30.8595L38.24 17.2181L38 17.0381L37.76 17.2181L19.5715 30.8595L19.4115 30.9795V31.1795V58.4623ZM53.1782 32.8847V32.6847L53.0182 32.5647L38.24 21.481L38 21.301L37.76 21.481L22.9818 32.5647L22.8218 32.6847V32.8847V58.0623H20.2115V31.3795L38 18.0381L55.7885 31.3795V58.0623H53.1782V32.8847ZM29.6425 55.052V55.452H30.0425H45.9575H46.3575V55.052V48.7996V48.3996H45.9575H30.0425H29.6425V48.7996V55.052ZM29.6425 45.3893V45.7893H30.0425H45.9575H46.3575V45.3893V39.137V38.737H45.9575H30.0425H29.6425V39.137V45.3893ZM26.2322 58.4623V58.8623H26.6322H49.3678H49.7678V58.4623V35.7266V35.3266H49.3678H26.6322H26.2322V35.7266V58.4623ZM75.6 38C75.6 58.7659 58.7659 75.6 38 75.6C17.2341 75.6 0.4 58.7659 0.4 38C0.4 17.2341 17.2341 0.4 38 0.4C58.7659 0.4 75.6 17.2341 75.6 38ZM45.5575 49.1996V54.652H30.4425V49.1996H45.5575ZM45.5575 39.537V44.9893H30.4425V39.537H45.5575ZM27.0322 58.0623V36.1266H48.9678V58.0623H27.0322Z" stroke="#4A4A4A" stroke-width="0.8"/>
</svg>
