<svg width="76" height="76" viewBox="0 0 76 76" fill="none" xmlns="http://www.w3.org/2000/svg">
<path d="M76 38C76 58.9868 58.9868 76 38 76C17.0132 76 0 58.9868 0 38C0 17.0132 17.0132 0 38 0C58.9868 0 76 17.0132 76 38Z" fill="#4A4A4A"/>
<path d="M36.4137 49.75H39.9388V35.65H36.4137V49.75ZM38 31.3025C38.5483 31.3025 39.0085 31.1262 39.3806 30.7738C39.7527 30.4212 39.9388 29.9708 39.9388 29.4225C39.9388 28.8742 39.7527 28.4042 39.3806 28.0125C39.0085 27.6208 38.5483 27.425 38 27.425C37.4517 27.425 36.9915 27.6208 36.6194 28.0125C36.2473 28.4042 36.0612 28.8742 36.0612 29.4225C36.0612 29.9708 36.2473 30.4212 36.6194 30.7738C36.9915 31.1262 37.4517 31.3025 38 31.3025ZM38 61.5C34.7883 61.5 31.7529 60.8831 28.8937 59.6494C26.0346 58.4156 23.5377 56.7315 21.4031 54.5969C19.2685 52.4623 17.5844 49.9654 16.3506 47.1062C15.1169 44.2471 14.5 41.1921 14.5 37.9412C14.5 34.7296 15.1169 31.6942 16.3506 28.835C17.5844 25.9758 19.2685 23.4888 21.4031 21.3738C23.5377 19.2588 26.0346 17.5844 28.8937 16.3506C31.7529 15.1169 34.8079 14.5 38.0587 14.5C41.2704 14.5 44.3058 15.1169 47.165 16.3506C50.0242 17.5844 52.5112 19.2588 54.6263 21.3738C56.7412 23.4888 58.4156 25.9758 59.6494 28.835C60.8831 31.6942 61.5 34.7492 61.5 38C61.5 41.2117 60.8831 44.2471 59.6494 47.1062C58.4156 49.9654 56.7412 52.4623 54.6263 54.5969C52.5112 56.7315 50.0242 58.4156 47.165 59.6494C44.3058 60.8831 41.2508 61.5 38 61.5ZM38.0587 57.975C43.5812 57.975 48.2812 56.0265 52.1587 52.1294C56.0362 48.2323 57.975 43.5029 57.975 37.9412C57.975 32.4188 56.0362 27.7187 52.1587 23.8412C48.2812 19.9637 43.5617 18.025 38 18.025C32.4775 18.025 27.7677 19.9637 23.8706 23.8412C19.9735 27.7187 18.025 32.4383 18.025 38C18.025 43.5225 19.9735 48.2323 23.8706 52.1294C27.7677 56.0265 32.4971 57.975 38.0587 57.975Z" fill="white"/>
<path d="M36.0137 49.75V50.15H36.4137H39.9388H40.3388V49.75V35.65V35.25H39.9388H36.4137H36.0137V35.65V49.75ZM75.6 38C75.6 58.7659 58.7659 75.6 38 75.6C17.2341 75.6 0.4 58.7659 0.4 38C0.4 17.2341 17.2341 0.4 38 0.4C58.7659 0.4 75.6 17.2341 75.6 38ZM39.5387 36.05V49.35H36.8138V36.05H39.5387ZM38 31.7025C38.6428 31.7025 39.2038 31.4922 39.6557 31.0641C40.1136 30.6304 40.3388 30.0721 40.3388 29.4225C40.3388 28.7733 40.1145 28.2042 39.6706 27.737C39.2217 27.2645 38.6561 27.025 38 27.025C37.3439 27.025 36.7783 27.2645 36.3294 27.737C35.8855 28.2042 35.6612 28.7733 35.6612 29.4225C35.6612 30.0721 35.8864 30.6304 36.3443 31.0641C36.7962 31.4922 37.3572 31.7025 38 31.7025ZM39.1055 30.4834C38.8132 30.7603 38.4538 30.9025 38 30.9025C37.5462 30.9025 37.1868 30.7603 36.8945 30.4834C36.6081 30.2121 36.4613 29.8696 36.4613 29.4225C36.4613 28.975 36.6091 28.6041 36.9094 28.288C37.2047 27.9772 37.5594 27.825 38 27.825C38.4405 27.825 38.7953 27.9772 39.0906 28.288C39.3909 28.6041 39.5387 28.975 39.5387 29.4225C39.5387 29.8696 39.3919 30.2121 39.1055 30.4834ZM38 61.1C34.8411 61.1 31.8598 60.4936 29.0522 59.2821C26.238 58.0677 23.7837 56.4117 21.686 54.314C19.5883 52.2163 17.9323 49.762 16.7179 46.9478C15.5067 44.1408 14.9 41.14 14.9 37.9412C14.9 34.7823 15.5064 31.801 16.7179 28.9935C17.9321 26.1796 19.5878 23.7356 21.6847 21.6579C23.7825 19.5793 26.2372 17.9326 29.0522 16.7179C31.8592 15.5067 34.86 14.9 38.0587 14.9C41.2177 14.9 44.199 15.5064 47.0065 16.7179C49.8212 17.9324 52.2656 19.5788 54.3434 21.6566C56.4212 23.7344 58.0675 26.1788 59.2821 28.9935C60.4933 31.8004 61.1 34.8012 61.1 38C61.1 41.1589 60.4936 44.1402 59.2821 46.9478C58.0674 49.7628 56.4207 52.2175 54.3421 54.3153C52.2644 56.4122 49.8204 58.0679 47.0065 59.2821C44.1996 60.4933 41.1988 61.1 38 61.1ZM28.7353 60.0166C31.6461 61.2727 34.7356 61.9 38 61.9C41.3029 61.9 44.4121 61.2729 47.3235 60.0166C50.2279 58.7634 52.7581 57.0507 54.9104 54.8784C57.0618 52.7071 58.7638 50.168 60.0166 47.2647C61.2727 44.3539 61.9 41.2644 61.9 38C61.9 34.6971 61.2729 31.5879 60.0166 28.6765C58.7637 25.7729 57.0613 23.2431 54.9091 21.0909C52.7569 18.9387 50.2271 17.2363 47.3235 15.9834C44.4127 14.7273 41.3232 14.1 38.0587 14.1C34.7559 14.1 31.6467 14.7271 28.7353 15.9834C25.8319 17.2362 23.2929 18.9382 21.1216 21.0896C18.9493 23.2419 17.2366 25.7721 15.9834 28.6765C14.7273 31.5873 14.1 34.6768 14.1 37.9412C14.1 41.2441 14.7271 44.3533 15.9834 47.2647C17.2365 50.1688 18.9488 52.7083 21.1203 54.8797C23.2917 57.0512 25.8312 58.7635 28.7353 60.0166ZM38.0587 58.375C43.6871 58.375 48.4893 56.3844 52.4423 52.4115C56.3954 48.4385 58.375 43.6073 58.375 37.9412C58.375 32.3135 56.3947 27.5115 52.4416 23.5584C48.4879 19.6047 43.6661 17.625 38 17.625C32.3723 17.625 27.5609 19.6052 23.5885 23.5577C19.615 27.5112 17.625 32.3333 17.625 38C17.625 43.6283 19.6155 48.4399 23.5878 52.4122C27.5606 56.3851 32.3921 58.375 38.0587 58.375ZM51.8752 51.8472C48.0731 55.6685 43.4754 57.575 38.0587 57.575C32.6021 57.575 27.9748 55.6678 24.1535 51.8465C20.3316 48.0246 18.425 43.4167 18.425 38C18.425 32.5434 20.3321 27.9263 24.1528 24.1248C27.9745 20.3223 32.5827 18.425 38 18.425C43.4573 18.425 48.0746 20.3228 51.8759 24.1241C55.6778 27.926 57.575 32.524 57.575 37.9412C57.575 43.3986 55.6771 48.0261 51.8752 51.8472Z" stroke="#4A4A4A" stroke-width="0.8"/>
</svg>
