<svg width="76" height="76" viewBox="0 0 76 76" fill="none" xmlns="http://www.w3.org/2000/svg">
<path d="M76 38C76 58.9868 58.9868 76 38 76C17.0132 76 0 58.9868 0 38C0 17.0132 17.0132 0 38 0C58.9868 0 76 17.0132 76 38Z" fill="#4A4A4A"/>
<path d="M17.5379 53.9149V22.085H58.4621V53.9149H17.5379ZM20.9483 31.5771H26.9732V25.4953H20.9483V31.5771ZM30.3836 31.5771H55.0518V25.4953H30.3836V31.5771ZM30.3836 41.0124H55.0518V34.9875H30.3836V41.0124ZM30.3836 50.5046H55.0518V44.4228H30.3836V50.5046ZM20.9483 50.5046H26.9732V44.4228H20.9483V50.5046ZM20.9483 41.0124H26.9732V34.9875H20.9483V41.0124Z" fill="white"/>
<path d="M17.1379 53.9149V54.3149H17.5379H58.4621H58.8621V53.9149V22.085V21.685H58.4621H17.5379H17.1379V22.085V53.9149ZM20.5483 31.5771V31.9771H20.9483H26.9732H27.3732V31.5771V25.4953V25.0953H26.9732H20.9483H20.5483V25.4953V31.5771ZM29.9836 31.5771V31.9771H30.3836H55.0518H55.4518V31.5771V25.4953V25.0953H55.0518H30.3836H29.9836V25.4953V31.5771ZM29.9836 41.0124V41.4124H30.3836H55.0518H55.4518V41.0124V34.9875V34.5875H55.0518H30.3836H29.9836V34.9875V41.0124ZM29.9836 50.5046V50.9046H30.3836H55.0518H55.4518V50.5046V44.4228V44.0228H55.0518H30.3836H29.9836V44.4228V50.5046ZM20.5483 50.5046V50.9046H20.9483H26.9732H27.3732V50.5046V44.4228V44.0228H26.9732H20.9483H20.5483V44.4228V50.5046ZM20.5483 41.0124V41.4124H20.9483H26.9732H27.3732V41.0124V34.9875V34.5875H26.9732H20.9483H20.5483V34.9875V41.0124ZM75.6 38C75.6 58.7659 58.7659 75.6 38 75.6C17.2341 75.6 0.4 58.7659 0.4 38C0.4 17.2341 17.2341 0.4 38 0.4C58.7659 0.4 75.6 17.2341 75.6 38ZM17.9379 53.5149V22.485H58.0621V53.5149H17.9379ZM26.5732 25.8953V31.1771H21.3483V25.8953H26.5732ZM54.6518 25.8953V31.1771H30.7836V25.8953H54.6518ZM54.6518 35.3875V40.6124H30.7836V35.3875H54.6518ZM54.6518 44.8228V50.1046H30.7836V44.8228H54.6518ZM26.5732 44.8228V50.1046H21.3483V44.8228H26.5732ZM26.5732 35.3875V40.6124H21.3483V35.3875H26.5732Z" stroke="#4A4A4A" stroke-width="0.8"/>
</svg>
