<svg width="76" height="76" viewBox="0 0 76 76" fill="none" xmlns="http://www.w3.org/2000/svg">
<path d="M76 38C76 58.9868 58.9868 76 38 76C17.0132 76 0 58.9868 0 38C0 17.0132 17.0132 0 38 0C58.9868 0 76 17.0132 76 38Z" fill="#4A4A4A"/>
<path d="M15.2643 25.0978V15.2646H25.0975V18.675H18.6746V25.0978H15.2643ZM15.2643 60.736V50.9028H18.6746V57.3256H25.0975V60.736H15.2643ZM50.9025 60.736V57.3256H57.3253V50.9028H60.7356V60.736H50.9025ZM57.3253 25.0978V18.675H50.9025V15.2646H60.7356V25.0978H57.3253ZM50.9593 51.0165H54.5402V54.5974H50.9593V51.0165ZM50.9593 43.8548H54.5402V47.4356H50.9593V43.8548ZM47.3784 47.4356H50.9593V51.0165H47.3784V47.4356ZM43.7976 51.0165H47.3784V54.5974H43.7976V51.0165ZM40.2167 47.4356H43.7976V51.0165H40.2167V47.4356ZM47.3784 40.2739H50.9593V43.8548H47.3784V40.2739ZM43.7976 43.8548H47.3784V47.4356H43.7976V43.8548ZM40.2167 40.2739H43.7976V43.8548H40.2167V40.2739ZM54.5402 21.4033V35.7268H40.2167V21.4033H54.5402ZM35.7264 40.2739V54.5974H21.4029V40.2739H35.7264ZM35.7264 21.4033V35.7268H21.4029V21.4033H35.7264ZM32.8844 51.7554V43.1159H24.2449V51.7554H32.8844ZM32.8844 32.8848V24.2452H24.2449V32.8848H32.8844ZM51.6982 32.8848V24.2452H43.0586V32.8848H51.6982Z" fill="white"/>
<path d="M14.8643 25.0978V25.4978H15.2643H18.6746H19.0746V25.0978V19.075H25.0975H25.4975V18.675V15.2646V14.8646H25.0975H15.2643H14.8643V15.2646V25.0978ZM18.6746 18.275H18.2746V18.675V24.6978H15.6643V15.6646H24.6975V18.275H18.6746ZM14.8643 60.736V61.136H15.2643H25.0975H25.4975V60.736V57.3256V56.9256H25.0975H19.0746V50.9028V50.5028H18.6746H15.2643H14.8643V50.9028V60.736ZM18.2746 57.3256V57.7257H18.6746H24.6975V60.336H15.6643V51.3028H18.2746V57.3256ZM50.5025 60.736V61.136H50.9025H60.7356H61.1356V60.736V50.9028V50.5028H60.7356H57.3253H56.9253V50.9028V56.9256H50.9025H50.5025V57.3256V60.736ZM57.3253 57.7257H57.7253V57.3256V51.3028H60.3356V60.336H51.3025V57.7257H57.3253ZM56.9253 25.0978V25.4978H57.3253H60.7356H61.1356V25.0978V15.2646V14.8646H60.7356H50.9025H50.5025V15.2646V18.675V19.075H50.9025H56.9253V25.0978ZM57.7253 18.675V18.275H57.3253H51.3025V15.6646H60.3356V24.6978H57.7253V18.675ZM54.9402 51.0165V50.6165H54.5402H51.3593V47.8356H54.5402H54.9402V47.4356V43.8548V43.4548H54.5402H51.3593V40.2739V39.8739H50.9593H47.3784H46.9784V40.2739V43.4548H44.1976V40.2739V39.8739H43.7976H40.2167H39.8167V40.2739V43.8548V44.2548H40.2167H43.3976V47.0356H40.2167H39.8167V47.4356V51.0165V51.4165H40.2167H43.3976V54.5974V54.9974H43.7976H47.3784H47.7784V54.5974V51.4165H50.5593V54.5974V54.9974H50.9593H54.5402H54.9402V54.5974V51.0165ZM50.5593 47.8356V50.6165H47.7784V47.8356H50.5593ZM44.1976 51.4165H46.9784V54.1974H44.1976V51.4165ZM46.9784 47.8356V50.6165H44.1976V47.8356H46.9784ZM43.3976 47.8356V50.6165H40.6167V47.8356H43.3976ZM46.9784 47.0356H44.1976V44.2548H46.9784V47.0356ZM47.7784 47.0356V44.2548H50.5593V47.0356H47.7784ZM50.5593 40.6739V43.4548H47.7784V40.6739H50.5593ZM51.3593 47.0356V44.2548H54.1402V47.0356H51.3593ZM43.3976 40.6739V43.4548H40.6167V40.6739H43.3976ZM51.3593 54.1974V51.4165H54.1402V54.1974H51.3593ZM54.9402 21.4033V21.0033H54.5402H40.2167H39.8167V21.4033V35.7268V36.1268H40.2167H54.5402H54.9402V35.7268V21.4033ZM36.1264 40.2739V39.8739H35.7264H21.4029H21.0029V40.2739V54.5974V54.9974H21.4029H35.7264H36.1264V54.5974V40.2739ZM36.1264 21.4033V21.0033H35.7264H21.4029H21.0029V21.4033V35.7268V36.1268H21.4029H35.7264H36.1264V35.7268V21.4033ZM32.8844 52.1554H33.2844V51.7554V43.1159V42.7159H32.8844H24.2449H23.8449V43.1159V51.7554V52.1554H24.2449H32.8844ZM32.8844 33.2848H33.2844V32.8848V24.2452V23.8452H32.8844H24.2449H23.8449V24.2452V32.8848V33.2848H24.2449H32.8844ZM51.6982 33.2848H52.0982V32.8848V24.2452V23.8452H51.6982H43.0586H42.6586V24.2452V32.8848V33.2848H43.0586H51.6982ZM75.6 38C75.6 58.7659 58.7659 75.6 38 75.6C17.2341 75.6 0.4 58.7659 0.4 38C0.4 17.2341 17.2341 0.4 38 0.4C58.7659 0.4 75.6 17.2341 75.6 38ZM40.6167 21.8033H54.1402V35.3268H40.6167V21.8033ZM35.3264 40.6739V54.1974H21.8029V40.6739H35.3264ZM21.8029 21.8033H35.3264V35.3268H21.8029V21.8033ZM32.4844 43.5159V51.3554H24.6449V43.5159H32.4844ZM24.6449 24.6452H32.4844V32.4848H24.6449V24.6452ZM43.4586 24.6452H51.2982V32.4848H43.4586V24.6452Z" stroke="#4A4A4A" stroke-width="0.8"/>
</svg>
