<svg width="76" height="76" viewBox="0 0 76 76" fill="none" xmlns="http://www.w3.org/2000/svg">
<path d="M76 38C76 58.9868 58.9868 76 38 76C17.0132 76 0 58.9868 0 38C0 17.0132 17.0132 0 38 0C58.9868 0 76 17.0132 76 38Z" fill="#4A4A4A"/>
<path d="M30.3835 61.8724L26.0637 54.4833L17.481 52.7213L18.4473 44.3659L12.9907 37.9999L18.4473 31.6908L17.481 23.3354L26.0637 21.5734L30.3835 14.1274L38 17.6515L45.6164 14.1274L49.993 21.5734L58.5189 23.3354L57.5526 31.6908L63.0092 37.9999L57.5526 44.3659L58.5189 52.7213L49.993 54.4833L45.6164 61.8724L38 58.3483L30.3835 61.8724ZM31.9182 57.3821L38 54.8243L44.2523 57.3821L48.0605 51.6981L54.7107 49.993L54.0286 43.2291L58.6326 37.9999L54.0286 32.657L54.7107 25.8932L48.0605 24.3017L44.1386 18.6177L38 21.1755L31.7477 18.6177L27.9394 24.3017L21.2892 25.8932L21.9713 32.657L17.3673 37.9999L21.9713 43.2291L21.2892 50.1067L27.9394 51.6981L31.9182 57.3821ZM35.5559 45.5595L48.4584 32.7707L45.9006 30.4403L35.5559 40.6713L30.1562 35.0443L27.5416 37.602L35.5559 45.5595Z" fill="white"/>
<path d="M30.0382 62.0742L30.2216 62.388L30.5515 62.2354L38 58.7891L45.4485 62.2354L45.7764 62.3871L45.9606 62.0762L50.2471 54.8392L58.5999 53.113L58.9583 53.0389L58.9163 52.6753L57.9701 44.4935L63.3129 38.2602L63.537 37.9987L63.3117 37.7382L57.9702 31.5621L58.9163 23.3813L58.9583 23.0177L58.5999 22.9437L50.2479 21.2176L45.9613 13.9247L45.7775 13.6122L45.4485 13.7644L38 17.2107L30.5515 13.7644L30.2205 13.6113L30.0375 13.9267L25.8077 21.2176L17.4006 22.9436L17.0416 23.0173L17.0837 23.3813L18.0297 31.5621L12.6882 37.7382L12.4629 37.9987L12.687 38.2602L18.0299 44.4935L17.0837 52.6753L17.0416 53.0394L17.4006 53.1131L25.8085 54.8392L30.0382 62.0742ZM26.4091 54.2814L26.319 54.1273L26.1442 54.0914L17.9205 52.4031L18.8446 44.4118L18.8647 44.2383L18.751 44.1056L13.5186 38.0011L18.7498 31.9524L18.8648 31.8194L18.8446 31.6448L17.9205 23.6535L26.1442 21.9652L26.3198 21.9292L26.4097 21.7741L30.5465 14.6436L37.832 18.0145L38 18.0922L38.1679 18.0145L45.4553 14.6427L49.6482 21.7761L49.7382 21.9292L49.9121 21.9651L58.0795 23.653L57.1553 31.6448L57.1351 31.8194L57.2501 31.9524L62.4814 38.0011L57.2489 44.1056L57.1352 44.2383L57.1553 44.4118L58.0795 52.4036L49.9121 54.0915L49.739 54.1273L49.6489 54.2794L45.4564 61.3576L38.1679 57.9853L38 57.9076L37.832 57.9853L30.5454 61.3567L26.4091 54.2814ZM31.5905 57.6115L31.7756 57.8759L32.0732 57.7508L38.0021 55.2573L44.1008 57.7523L44.4029 57.8759L44.5846 57.6047L48.3078 52.0477L54.81 50.3804L55.1432 50.295L55.1087 49.9528L54.4441 43.3625L58.9328 38.2642L59.163 38.0027L58.9356 37.7388L54.4438 32.5261L55.1087 25.9333L55.1437 25.5855L54.8038 25.5041L48.3027 23.9483L44.4678 18.3906L44.2838 18.1239L43.9847 18.2485L37.9986 20.7428L31.8991 18.2475L31.597 18.1239L31.4153 18.3951L27.6942 23.9491L21.1961 25.5041L20.8562 25.5855L20.8913 25.9333L21.5561 32.5261L17.0643 37.7388L16.8369 38.0027L17.0671 38.2642L21.5561 43.3628L20.8912 50.0672L20.8568 50.4144L21.1961 50.4957L27.6988 52.0518L31.5905 57.6115ZM38.1514 54.4541L37.9978 54.3913L37.8449 54.4556L32.0607 56.8882L28.2671 51.4688L28.1801 51.3444L28.0325 51.3091L21.7217 49.7989L22.3694 43.2686L22.3865 43.0954L22.2715 42.9648L17.8978 37.9971L22.2743 32.9181L22.3865 32.7879L22.3693 32.6169L21.7223 26.2008L28.0325 24.6907L28.1847 24.6543L28.2717 24.5243L31.8983 19.1115L37.8485 21.5457L38.0014 21.6083L38.1538 21.5447L43.9934 19.1116L47.7313 24.5288L47.8183 24.655L47.9674 24.6907L54.2776 26.2008L53.6306 32.6169L53.6134 32.7879L53.7256 32.9181L58.1021 37.9971L53.7284 42.9648L53.6131 43.0957L53.6306 43.2692L54.2782 49.6909L47.9611 51.3107L47.8132 51.3486L47.7282 51.4755L44.1016 56.8883L38.1514 54.4541ZM35.274 45.8434L35.5556 46.123L35.8375 45.8436L48.74 33.0548L49.0389 32.7585L48.7278 32.475L46.17 30.1446L45.8893 29.8889L45.6193 30.1559L35.5633 40.1014L30.4448 34.7673L30.1651 34.4759L29.8764 34.7583L27.2618 37.3161L26.9717 37.5999L27.2597 37.8859L35.274 45.8434ZM35.2673 40.9483L35.5484 41.2413L35.8372 40.9557L45.9119 30.9917L47.8778 32.7829L35.5561 44.9961L28.1114 37.6041L30.1472 35.6126L35.2673 40.9483ZM75.6 38C75.6 58.7659 58.7659 75.6 38 75.6C17.2341 75.6 0.4 58.7659 0.4 38C0.4 17.2341 17.2341 0.4 38 0.4C58.7659 0.4 75.6 17.2341 75.6 38Z" stroke="#4A4A4A" stroke-width="0.8"/>
</svg>
