<svg width="326" height="331" viewBox="0 0 326 331" fill="none" xmlns="http://www.w3.org/2000/svg">
<path d="M6.73158 11.9927H311.481V331H0.465759V18.2475C0.465759 16.5857 1.12591 14.992 2.30098 13.8169C3.47605 12.6418 5.06978 11.9817 6.73158 11.9817V11.9927Z" fill="#12C2E9"/>
<path d="M16.1633 1H319.077C320.681 1 322.219 1.63698 323.353 2.77082C324.486 3.90466 325.123 5.44248 325.123 7.04597V321.568H10.1173V7.04597C10.1173 5.44248 10.7543 3.90466 11.8882 2.77082C13.022 1.63698 14.5598 1 16.1633 1Z" fill="white" stroke="#263238" stroke-miterlimit="10"/>
<path d="M16.1633 1H85.626C87.2295 1 88.7673 1.63698 89.9011 2.77082C91.035 3.90466 91.672 5.44248 91.672 7.04597V321.568H10.1173V7.04597C10.1173 5.44248 10.7543 3.90466 11.8882 2.77082C13.022 1.63698 14.5598 1 16.1633 1Z" fill="#ABABAB"/>
<path d="M16.1633 1H319.077C320.681 1 322.219 1.63698 323.353 2.77082C324.486 3.90466 325.123 5.44248 325.123 7.04597V35.7918H10.1173V7.04597C10.1173 5.44248 10.7543 3.90466 11.8882 2.77082C13.022 1.63698 14.5598 1 16.1633 1Z" fill="#C471ED"/>
<path d="M16.1633 1H319.077C320.681 1 322.219 1.63698 323.353 2.77082C324.486 3.90466 325.123 5.44248 325.123 7.04597V23.447H10.1173V7.04597C10.1173 5.44248 10.7543 3.90466 11.8882 2.77082C13.022 1.63698 14.5598 1 16.1633 1Z" fill="#12C2E9"/>
<path d="M282.78 12.905C282.78 11.9571 282.498 11.0304 281.972 10.2422C281.445 9.45408 280.697 8.83977 279.821 8.47702C278.945 8.11426 277.981 8.01935 277.052 8.20428C276.122 8.38921 275.268 8.84568 274.598 9.51597C273.927 10.1863 273.471 11.0402 273.286 11.97C273.101 12.8997 273.196 13.8633 273.559 14.7391C273.921 15.6149 274.536 16.3634 275.324 16.8901C276.112 17.4167 277.039 17.6978 277.987 17.6978C279.257 17.6949 280.474 17.189 281.373 16.2908C282.271 15.3926 282.777 14.1752 282.78 12.905Z" fill="white"/>
<path d="M301.159 12.905C301.159 11.9571 300.878 11.0304 300.351 10.2422C299.825 9.45408 299.076 8.83977 298.201 8.47702C297.325 8.11426 296.361 8.01935 295.431 8.20428C294.502 8.38921 293.648 8.84568 292.977 9.51597C292.307 10.1863 291.851 11.0402 291.666 11.97C291.481 12.8997 291.576 13.8633 291.938 14.7391C292.301 15.6149 292.916 16.3634 293.704 16.8901C294.492 17.4167 295.418 17.6978 296.366 17.6978C297.637 17.6949 298.854 17.189 299.752 16.2908C300.65 15.3926 301.156 14.1752 301.159 12.905Z" fill="white"/>
<path d="M319.55 12.905C319.552 11.9544 319.272 11.0246 318.746 10.2332C318.219 9.44174 317.47 8.82432 316.592 8.45904C315.715 8.09377 314.748 7.99707 313.816 8.18118C312.883 8.36529 312.026 8.82194 311.353 9.49332C310.68 10.1647 310.222 11.0206 310.036 11.9528C309.849 12.8849 309.944 13.8514 310.307 14.7298C310.67 15.6082 311.286 16.3591 312.076 16.8875C312.867 17.4158 313.796 17.6978 314.746 17.6978C316.018 17.6978 317.239 17.1932 318.139 16.2947C319.04 15.3962 319.547 14.1771 319.55 12.905Z" fill="white"/>
<path d="M115.614 35.0444V27.5583" stroke="#263238" stroke-miterlimit="10"/>
<path d="M162.003 35.0444V27.5583" stroke="#263238" stroke-miterlimit="10"/>
<path d="M208.403 35.0444V27.5583" stroke="#263238" stroke-miterlimit="10"/>
<path d="M254.792 35.0444V27.5583" stroke="#263238" stroke-miterlimit="10"/>
<path d="M301.181 35.0444V27.5583" stroke="#263238" stroke-miterlimit="10"/>
<path d="M307.172 64.7576H108.139V262.296H307.172V64.7576Z" fill="white" stroke="#263238" stroke-miterlimit="10"/>
<path d="M219.583 114.488H246.383" stroke="#263238" stroke-miterlimit="10"/>
<path d="M219.583 134.187H246.383" stroke="#263238" stroke-miterlimit="10"/>
<path d="M219.583 153.875H246.383" stroke="#263238" stroke-miterlimit="10"/>
<path d="M168.159 197.23H181.229" stroke="#263238" stroke-miterlimit="10"/>
<path d="M137.632 197.23H165.18" stroke="#263238" stroke-miterlimit="10"/>
<path d="M124.595 197.23H133.906" stroke="#263238" stroke-miterlimit="10"/>
<path d="M146.943 203.287H181.229" stroke="#263238" stroke-miterlimit="10"/>
<path d="M124.595 203.287H143.964" stroke="#263238" stroke-miterlimit="10"/>
<path d="M167.049 209.333H181.229" stroke="#263238" stroke-miterlimit="10"/>
<path d="M140.611 209.333H163.322" stroke="#263238" stroke-miterlimit="10"/>
<path d="M124.595 209.333H137.259" stroke="#263238" stroke-miterlimit="10"/>
<path d="M124.595 215.379H181.229" stroke="#263238" stroke-miterlimit="10"/>
<path d="M148.053 221.425H181.229" stroke="#263238" stroke-miterlimit="10"/>
<path d="M124.595 221.425H143.964" stroke="#263238" stroke-miterlimit="10"/>
<path d="M171.512 227.482H181.229" stroke="#263238" stroke-miterlimit="10"/>
<path d="M124.595 227.482H168.533" stroke="#263238" stroke-miterlimit="10"/>
<path d="M173.007 233.528H181.229" stroke="#263238" stroke-miterlimit="10"/>
<path d="M139.49 233.528H170.775" stroke="#263238" stroke-miterlimit="10"/>
<path d="M124.595 233.528H137.259" stroke="#263238" stroke-miterlimit="10"/>
<path d="M174.491 239.574H181.229" stroke="#263238" stroke-miterlimit="10"/>
<path d="M152.154 239.574H170.401" stroke="#263238" stroke-miterlimit="10"/>
<path d="M124.595 239.574H149.548" stroke="#263238" stroke-miterlimit="10"/>
<path d="M286.286 109.058H296.125" stroke="#263238" stroke-miterlimit="10"/>
<path d="M263.289 109.058H284.044" stroke="#263238" stroke-miterlimit="10"/>
<path d="M253.473 109.058H260.486" stroke="#263238" stroke-miterlimit="10"/>
<path d="M270.303 116.181H296.125" stroke="#263238" stroke-miterlimit="10"/>
<path d="M253.473 116.181H268.06" stroke="#263238" stroke-miterlimit="10"/>
<path d="M285.44 123.304H296.125" stroke="#263238" stroke-miterlimit="10"/>
<path d="M265.532 123.304H282.637" stroke="#263238" stroke-miterlimit="10"/>
<path d="M253.473 123.304H263.004" stroke="#263238" stroke-miterlimit="10"/>
<path d="M253.473 130.428H296.125" stroke="#263238" stroke-miterlimit="10"/>
<path d="M271.138 137.54H296.125" stroke="#263238" stroke-miterlimit="10"/>
<path d="M253.473 137.54H268.06" stroke="#263238" stroke-miterlimit="10"/>
<path d="M288.803 144.663H296.125" stroke="#263238" stroke-miterlimit="10"/>
<path d="M253.473 144.663H286.561" stroke="#263238" stroke-miterlimit="10"/>
<path d="M289.925 151.786H296.125" stroke="#263238" stroke-miterlimit="10"/>
<path d="M264.686 151.786H288.243" stroke="#263238" stroke-miterlimit="10"/>
<path d="M253.473 151.786H263.004" stroke="#263238" stroke-miterlimit="10"/>
<path d="M291.057 158.91H296.125" stroke="#263238" stroke-miterlimit="10"/>
<path d="M274.227 158.91H287.968" stroke="#263238" stroke-miterlimit="10"/>
<path d="M253.473 158.91H272.26" stroke="#263238" stroke-miterlimit="10"/>
<path d="M153.396 166.308C148.141 166.306 142.971 164.975 138.369 162.438L142.458 155.04C146.817 157.449 151.85 158.35 156.773 157.603C161.697 156.855 166.236 154.502 169.684 150.909C173.132 147.315 175.296 142.683 175.839 137.733C176.382 132.782 175.275 127.791 172.688 123.535L179.899 119.138C182.763 123.843 184.324 129.226 184.42 134.733C184.516 140.241 183.145 145.674 180.447 150.476C177.749 155.279 173.821 159.276 169.067 162.058C164.313 164.84 158.904 166.307 153.396 166.308Z" fill="#C471ED"/>
<path d="M138.358 162.438C132.803 159.367 128.323 154.667 125.522 148.972C122.721 143.276 121.733 136.859 122.691 130.584C123.65 124.31 126.508 118.48 130.882 113.88C135.255 109.28 140.934 106.132 147.152 104.859L148.823 113.147C144.299 114.072 140.167 116.362 136.984 119.707C133.8 123.052 131.719 127.293 131.019 131.857C130.32 136.422 131.036 141.091 133.071 145.236C135.107 149.381 138.364 152.803 142.403 155.04L138.358 162.438Z" fill="#F5505D"/>
<path d="M172.677 123.535C170.672 120.218 167.842 117.477 164.463 115.578C161.085 113.678 157.272 112.686 153.396 112.696C151.879 112.697 150.365 112.848 148.878 113.147L147.207 104.859C149.244 104.449 151.318 104.243 153.396 104.243C158.724 104.224 163.966 105.587 168.611 108.197C173.256 110.808 177.145 114.577 179.899 119.138L172.677 123.535Z" fill="#30B5EA"/>
<path d="M214.108 109.564H204.808V118.863H214.108V109.564Z" fill="#C471ED"/>
<path d="M214.108 129.537H204.808V138.837H214.108V129.537Z" fill="#F5505D"/>
<path d="M214.108 149.5H204.808V158.8H214.108V149.5Z" fill="#30B5EA"/>
<path d="M215.878 204.386H202.126V241.223H215.878V204.386Z" fill="#F0536B"/>
<path d="M234.027 187.886H220.275V241.223H234.027V187.886Z" fill="#C471ED"/>
<path d="M252.176 212.631H238.424V241.223H252.176V212.631Z" fill="#30B5EA"/>
<path d="M270.314 195.581H256.562V241.223H270.314V195.581Z" fill="#C471ED"/>
<path d="M288.463 180.741H274.711V241.223H288.463V180.741Z" fill="#F0536B"/>
<path d="M249.549 78.9819H179.218V85.7204H249.549V78.9819Z" fill="#F5505D"/>
<path d="M82.7019 56.3481H19.0983V124.437H82.7019V56.3481Z" fill="white"/>
<path d="M50.8891 101.957C47.9055 101.957 44.9706 101.2 42.3588 99.7581L44.6893 95.5369C47.1628 96.8961 50.0155 97.4016 52.8054 96.9752C55.5953 96.5488 58.1668 95.2142 60.1214 93.1783C62.076 91.1423 63.3046 88.5186 63.6169 85.7135C63.9292 82.9085 63.3077 80.0788 61.8488 77.6628L65.9491 75.1675C67.5883 77.838 68.4844 80.898 68.5445 84.0309C68.6046 87.1639 67.8267 90.256 66.2912 92.9875C64.7556 95.7189 62.5182 97.9906 59.8104 99.5674C57.1026 101.144 54.0226 101.969 50.8891 101.957Z" fill="#C471ED"/>
<path d="M42.3698 99.7471C39.1973 98.0148 36.6356 95.3471 35.0333 92.1069C33.431 88.8668 32.8659 85.2117 33.4149 81.639C33.9639 78.0663 35.6003 74.7495 38.1015 72.1399C40.6027 69.5304 43.8472 67.7548 47.3935 67.0549L48.3389 71.7598C45.7733 72.2875 43.4307 73.5879 41.626 75.4863C39.8213 77.3847 38.6409 79.79 38.2435 82.3789C37.8462 84.9679 38.2508 87.6165 39.4031 89.9687C40.5554 92.3209 42.4001 94.2641 44.6893 95.5369L42.3698 99.7471Z" fill="#F5505D"/>
<path d="M61.8489 77.6629C60.7082 75.7712 59.0949 74.209 57.1675 73.1296C55.2402 72.0503 53.0651 71.4911 50.8562 71.507C49.9963 71.5084 49.1385 71.5931 48.2949 71.7599L47.3495 67.055C48.5039 66.8221 49.6785 66.7042 50.8562 66.7032C53.8838 66.6928 56.8625 67.467 59.5018 68.9504C62.1411 70.4339 64.3511 72.5759 65.9161 75.1676L61.8489 77.6629Z" fill="#30B5EA"/>
<path d="M62.3764 108.08H72.2148" stroke="#263238" stroke-miterlimit="10"/>
<path d="M39.3798 108.08H60.134" stroke="#263238" stroke-miterlimit="10"/>
<path d="M29.5633 108.08H36.5767" stroke="#263238" stroke-miterlimit="10"/>
<path d="M46.3932 111.432H72.2149" stroke="#263238" stroke-miterlimit="10"/>
<path d="M29.5633 111.432H44.1506" stroke="#263238" stroke-miterlimit="10"/>
<path d="M61.5411 114.796H72.215" stroke="#263238" stroke-miterlimit="10"/>
<path d="M41.6223 114.796H58.7378" stroke="#263238" stroke-miterlimit="10"/>
<path d="M29.5633 114.796H39.105" stroke="#263238" stroke-miterlimit="10"/>
<path d="M82.7019 148.566H19.0983V216.654H82.7019V148.566Z" fill="white"/>
<path d="M63.6076 156.063H75.4907" stroke="#263238" stroke-miterlimit="10"/>
<path d="M35.8292 156.063H48.4708" stroke="#263238" stroke-miterlimit="10"/>
<path d="M23.9791 156.063H32.4435" stroke="#263238" stroke-miterlimit="10"/>
<path d="M44.3045 163.186H48.2729" stroke="#263238" stroke-miterlimit="10"/>
<path d="M23.9791 163.186H41.5894" stroke="#263238" stroke-miterlimit="10"/>
<path d="M38.5444 170.309H48.2729" stroke="#263238" stroke-miterlimit="10"/>
<path d="M23.9791 170.309H35.4884" stroke="#263238" stroke-miterlimit="10"/>
<path d="M23.9791 177.432H48.2729" stroke="#263238" stroke-miterlimit="10"/>
<path d="M45.3159 184.556H75.4908" stroke="#263238" stroke-miterlimit="10"/>
<path d="M23.9791 184.556H41.5894" stroke="#263238" stroke-miterlimit="10"/>
<path d="M66.6526 191.679H75.4907" stroke="#263238" stroke-miterlimit="10"/>
<path d="M23.9791 191.679H63.9484" stroke="#263238" stroke-miterlimit="10"/>
<path d="M68.0157 198.791H75.4907" stroke="#263238" stroke-miterlimit="10"/>
<path d="M37.522 198.791H65.982" stroke="#263238" stroke-miterlimit="10"/>
<path d="M23.9791 198.791H35.4884" stroke="#263238" stroke-miterlimit="10"/>
<path d="M69.3679 205.914H75.4908" stroke="#263238" stroke-miterlimit="10"/>
<path d="M49.0423 205.914H65.6412" stroke="#263238" stroke-miterlimit="10"/>
<path d="M23.9791 205.914H46.668" stroke="#263238" stroke-miterlimit="10"/>
<path d="M75.5017 156.118H50.5703V181.049H75.5017V156.118Z" stroke="#263238" stroke-miterlimit="10"/>
<path d="M50.5703 181.038L60.112 170.43L64.8828 173.618L71.7862 165.659L74.9631 167.253" stroke="#263238" stroke-miterlimit="10"/>
<path d="M57.9904 166.725C60.0424 166.725 61.7059 165.062 61.7059 163.01C61.7059 160.958 60.0424 159.294 57.9904 159.294C55.9383 159.294 54.2748 160.958 54.2748 163.01C54.2748 165.062 55.9383 166.725 57.9904 166.725Z" stroke="#263238" stroke-miterlimit="10"/>
<path d="M82.7019 236.298H19.0983V304.387H82.7019V236.298Z" fill="white"/>
<path d="M46.8878 275.278H71.8741" stroke="#263238" stroke-miterlimit="10"/>
<path d="M29.2226 275.278H43.7989" stroke="#263238" stroke-miterlimit="10"/>
<path d="M64.5531 282.401H71.8742" stroke="#263238" stroke-miterlimit="10"/>
<path d="M29.2226 282.401H62.3106" stroke="#263238" stroke-miterlimit="10"/>
<path d="M65.6742 289.525H71.8741" stroke="#263238" stroke-miterlimit="10"/>
<path d="M40.4351 289.525H63.9924" stroke="#263238" stroke-miterlimit="10"/>
<path d="M29.2226 289.525H38.7533" stroke="#263238" stroke-miterlimit="10"/>
<path d="M66.7955 296.648H71.8741" stroke="#263238" stroke-miterlimit="10"/>
<path d="M49.9768 296.648H63.7176" stroke="#263238" stroke-miterlimit="10"/>
<path d="M29.2226 296.648H48.0091" stroke="#263238" stroke-miterlimit="10"/>
<path d="M36.2798 254.557H29.5413V270.87H36.2798V254.557Z" fill="#F0536B"/>
<path d="M45.173 247.258H38.4345V270.87H45.173V247.258Z" fill="#C471ED"/>
<path d="M54.066 258.218H47.3275V270.881H54.066V258.218Z" fill="#30B5EA"/>
<path d="M62.948 250.666H56.2095V270.87H62.948V250.666Z" fill="#C471ED"/>
<path d="M71.8412 244.092H65.1027V270.87H71.8412V244.092Z" fill="#F0536B"/>
</svg>
