<svg width="367" height="298" viewBox="0 0 367 298" fill="none" xmlns="http://www.w3.org/2000/svg">
<path d="M121.238 0.00144692H131.418L141.668 117.251H131.498C129.174 117.209 126.946 116.317 125.236 114.743C123.526 113.17 122.452 111.024 122.218 108.711L113.448 8.54145C113.328 7.45438 113.442 6.35432 113.78 5.31452C114.119 4.27472 114.676 3.31903 115.413 2.51106C116.15 1.70309 117.05 1.06138 118.055 0.628659C119.059 0.195935 120.144 -0.0178813 121.238 0.00144692Z" fill="#12C2E9"/>
<path d="M114.938 11.7614C114.916 11.5394 114.813 11.3332 114.649 11.1821C114.485 11.0309 114.271 10.9452 114.048 10.9414C113.943 10.9408 113.84 10.9623 113.745 11.0043C113.649 11.0464 113.564 11.1082 113.494 11.1856C113.424 11.2631 113.371 11.3544 113.339 11.4536C113.307 11.5528 113.296 11.6577 113.308 11.7614L113.998 19.6214C114.017 19.8416 114.119 20.0465 114.281 20.1963C114.444 20.346 114.657 20.4298 114.878 20.4314C114.982 20.4349 115.086 20.4159 115.183 20.3756C115.28 20.3353 115.367 20.2746 115.438 20.1978C115.509 20.121 115.563 20.0297 115.595 19.9303C115.628 19.8308 115.639 19.7255 115.628 19.6214L114.938 11.7614Z" fill="#12C2E9"/>
<path opacity="0.5" d="M114.938 11.7614C114.916 11.5394 114.813 11.3332 114.649 11.1821C114.485 11.0309 114.271 10.9452 114.048 10.9414C113.943 10.9408 113.84 10.9623 113.745 11.0043C113.649 11.0464 113.564 11.1082 113.494 11.1856C113.424 11.2631 113.371 11.3544 113.339 11.4536C113.307 11.5528 113.296 11.6577 113.308 11.7614L113.998 19.6214C114.017 19.8416 114.119 20.0465 114.281 20.1963C114.444 20.346 114.657 20.4298 114.878 20.4314C114.982 20.4349 115.086 20.4159 115.183 20.3756C115.28 20.3353 115.367 20.2746 115.438 20.1978C115.509 20.121 115.563 20.0297 115.595 19.9303C115.628 19.8308 115.639 19.7255 115.628 19.6214L114.938 11.7614Z" fill="white"/>
<path d="M133.578 117.251H175.498C176.591 117.271 177.676 117.057 178.68 116.624C179.685 116.191 180.585 115.55 181.323 114.742C182.06 113.934 182.616 112.978 182.955 111.938C183.294 110.899 183.407 109.798 183.288 108.711L174.518 8.54141C174.283 6.22921 173.209 4.08318 171.499 2.50942C169.789 0.935665 167.561 0.0433726 165.238 0.00141059H123.328C122.234 -0.0195437 121.148 0.193173 120.143 0.62535C119.138 1.05753 118.236 1.69922 117.499 2.50755C116.762 3.31589 116.205 4.27226 115.867 5.31278C115.529 6.3533 115.416 7.45402 115.538 8.54141L124.298 108.681C124.525 110.999 125.596 113.152 127.307 114.732C129.018 116.312 131.249 117.209 133.578 117.251Z" fill="#12C2E9"/>
<path opacity="0.5" d="M133.578 117.251H175.498C176.591 117.271 177.676 117.057 178.68 116.624C179.685 116.191 180.585 115.55 181.323 114.742C182.06 113.934 182.616 112.978 182.955 111.938C183.294 110.899 183.407 109.798 183.288 108.711L174.518 8.54141C174.283 6.22921 173.209 4.08318 171.499 2.50942C169.789 0.935665 167.561 0.0433726 165.238 0.00141059H123.328C122.234 -0.0195437 121.148 0.193173 120.143 0.62535C119.138 1.05753 118.236 1.69922 117.499 2.50755C116.762 3.31589 116.205 4.27226 115.867 5.31278C115.529 6.3533 115.416 7.45402 115.538 8.54141L124.298 108.681C124.525 110.999 125.596 113.152 127.307 114.732C129.018 116.312 131.249 117.209 133.578 117.251Z" fill="white"/>
<path d="M123.498 1.96132H134.388C134.743 1.96826 135.086 2.0942 135.362 2.31898C135.637 2.54377 135.829 2.85442 135.908 3.20131L135.978 3.54132C136.17 4.38318 136.639 5.13625 137.31 5.68011C137.98 6.22397 138.814 6.5272 139.678 6.54132H150.058C150.875 6.56019 151.666 6.25556 152.26 5.69372C152.854 5.13187 153.201 4.35829 153.228 3.54132V3.20131C153.232 3.03452 153.268 2.87013 153.336 2.71753C153.403 2.56494 153.5 2.42712 153.621 2.31197C153.741 2.19682 153.884 2.10658 154.039 2.04641C154.195 1.98625 154.361 1.95733 154.528 1.96132H165.418C167.208 1.99376 168.924 2.6813 170.242 3.89385C171.559 5.1064 172.387 6.75984 172.568 8.54132L181.328 108.681C181.42 109.519 181.333 110.366 181.072 111.168C180.812 111.969 180.383 112.705 179.815 113.328C179.248 113.95 178.554 114.445 177.78 114.778C177.006 115.112 176.17 115.276 175.328 115.261H133.408C131.617 115.229 129.901 114.541 128.583 113.329C127.266 112.116 126.438 110.463 126.258 108.681L117.488 8.51132C117.401 7.67565 117.493 6.83115 117.757 6.03359C118.021 5.23603 118.451 4.50356 119.019 3.88453C119.587 3.2655 120.28 2.774 121.052 2.44248C121.824 2.11096 122.658 1.94696 123.498 1.96132Z" fill="white"/>
<path d="M147.058 3.07135C147.08 3.29602 147.184 3.50474 147.35 3.65779C147.515 3.81084 147.732 3.89752 147.958 3.90135C148.064 3.90338 148.17 3.88273 148.268 3.84077C148.365 3.7988 148.453 3.73649 148.525 3.65798C148.597 3.57947 148.651 3.48654 148.685 3.3854C148.718 3.28425 148.729 3.1772 148.718 3.07135C148.696 2.84668 148.592 2.63795 148.426 2.48491C148.26 2.33186 148.043 2.24518 147.818 2.24135C147.711 2.23932 147.606 2.25998 147.508 2.30194C147.41 2.3439 147.322 2.40621 147.25 2.48472C147.178 2.56324 147.124 2.65615 147.091 2.7573C147.058 2.85845 147.046 2.9655 147.058 3.07135Z" fill="#263238"/>
<path d="M141.108 2.24135H143.958C144.184 2.24491 144.402 2.33125 144.57 2.48411C144.737 2.63698 144.843 2.84582 144.868 3.07135C144.879 3.1772 144.868 3.28425 144.835 3.3854C144.801 3.48654 144.747 3.57947 144.675 3.65798C144.603 3.73649 144.515 3.7988 144.418 3.84077C144.32 3.88273 144.214 3.90338 144.108 3.90135H141.258C141.031 3.89778 140.813 3.81145 140.646 3.65858C140.478 3.50572 140.372 3.29687 140.348 3.07135C140.336 2.9655 140.348 2.85845 140.381 2.7573C140.414 2.65615 140.468 2.56324 140.54 2.48472C140.612 2.40621 140.7 2.3439 140.798 2.30194C140.896 2.25998 141.001 2.23932 141.108 2.24135Z" fill="#263238"/>
<path d="M178.348 75.0114H123.278L118.468 19.9514H173.528L178.348 75.0114Z" fill="#263238"/>
<path d="M129.908 13.4115C129.977 13.9833 129.922 14.5633 129.747 15.1119C129.571 15.6605 129.279 16.1648 128.891 16.5902C128.502 17.0155 128.027 17.352 127.496 17.5766C126.966 17.8012 126.393 17.9086 125.818 17.8915C124.599 17.8664 123.432 17.3973 122.535 16.5723C121.639 15.7474 121.074 14.6234 120.948 13.4115C120.878 12.8397 120.933 12.2596 121.109 11.711C121.284 11.1624 121.576 10.6582 121.964 10.2328C122.353 9.80738 122.828 9.47089 123.359 9.2463C123.889 9.0217 124.462 8.91431 125.038 8.93146C126.256 8.95656 127.423 9.42565 128.32 10.2506C129.216 11.0755 129.781 12.1996 129.908 13.4115Z" fill="#263238"/>
<path d="M166.888 15.4713H158.288C157.727 15.4619 157.189 15.2469 156.776 14.8672C156.363 14.4875 156.104 13.9695 156.048 13.4113C156.019 13.1491 156.047 12.8839 156.129 12.6332C156.211 12.3825 156.345 12.1521 156.523 11.9573C156.701 11.7624 156.918 11.6077 157.16 11.5032C157.402 11.3987 157.664 11.347 157.928 11.3513H166.528C167.088 11.3607 167.626 11.5757 168.039 11.9554C168.452 12.3351 168.711 12.8532 168.768 13.4113C168.796 13.6735 168.768 13.9388 168.686 14.1895C168.604 14.4402 168.47 14.6706 168.292 14.8654C168.114 15.0602 167.897 15.215 167.655 15.3195C167.413 15.4239 167.151 15.4757 166.888 15.4713Z" fill="#263238"/>
<path d="M148.058 82.6815H129.658C129.115 82.6736 128.595 82.4647 128.198 82.0952C127.801 81.7257 127.555 81.2219 127.508 80.6815C127.474 80.4279 127.496 80.1702 127.572 79.926C127.648 79.6818 127.776 79.4569 127.947 79.2668C128.118 79.0768 128.328 78.926 128.563 78.825C128.798 78.7239 129.052 78.675 129.308 78.6815H147.718C148.259 78.6916 148.778 78.9012 149.175 79.2703C149.572 79.6394 149.818 80.1419 149.868 80.6815C149.898 80.9353 149.873 81.1925 149.795 81.436C149.718 81.6794 149.589 81.9034 149.417 82.0929C149.246 82.2824 149.036 82.4329 148.801 82.5344C148.567 82.636 148.313 82.6861 148.058 82.6815Z" fill="#263238"/>
<path d="M172.058 90.4314H130.358C129.817 90.4192 129.299 90.2088 128.902 89.8402C128.506 89.4715 128.259 88.9703 128.208 88.4314C128.178 88.1777 128.202 87.9204 128.28 87.677C128.358 87.4335 128.487 87.2095 128.658 87.02C128.83 86.8306 129.04 86.68 129.274 86.5785C129.509 86.477 129.762 86.4268 130.018 86.4314H171.718C172.26 86.4413 172.781 86.6506 173.179 87.0195C173.577 87.3883 173.826 87.891 173.878 88.4314C173.908 88.6861 173.883 88.9442 173.805 89.1884C173.726 89.4325 173.597 89.6571 173.424 89.8467C173.251 90.0363 173.04 90.1867 172.804 90.2876C172.569 90.3885 172.314 90.4375 172.058 90.4314Z" fill="#263238"/>
<path d="M162.158 96.4515H130.888C130.347 96.4392 129.829 96.2288 129.432 95.8602C129.036 95.4915 128.789 94.9903 128.738 94.4515C128.706 94.1983 128.729 93.9412 128.806 93.6977C128.882 93.4543 129.01 93.2301 129.181 93.0404C129.352 92.8507 129.561 92.7 129.795 92.5984C130.029 92.4967 130.282 92.4467 130.538 92.4515H161.818C162.359 92.4637 162.877 92.6741 163.273 93.0428C163.669 93.4114 163.916 93.9127 163.968 94.4515C163.998 94.7053 163.973 94.9625 163.895 95.206C163.818 95.4494 163.689 95.6734 163.517 95.8629C163.346 96.0524 163.136 96.2029 162.901 96.3044C162.667 96.406 162.413 96.4561 162.158 96.4515Z" fill="#263238"/>
<path d="M168.218 102.472H131.418C130.875 102.464 130.355 102.255 129.958 101.885C129.561 101.516 129.315 101.012 129.268 100.472C129.236 100.218 129.259 99.9612 129.336 99.7178C129.412 99.4743 129.54 99.2501 129.711 99.0604C129.882 98.8708 130.091 98.72 130.325 98.6184C130.559 98.5168 130.812 98.4667 131.068 98.4715H167.878C168.419 98.4838 168.937 98.6942 169.333 99.0628C169.729 99.4315 169.976 99.9327 170.028 100.472C170.058 100.725 170.033 100.983 169.955 101.226C169.878 101.469 169.749 101.693 169.577 101.883C169.406 102.072 169.196 102.223 168.961 102.324C168.727 102.426 168.473 102.476 168.218 102.472Z" fill="#263238"/>
<path d="M143.208 108.492H131.938C131.397 108.479 130.879 108.269 130.482 107.9C130.086 107.532 129.839 107.03 129.788 106.492C129.758 106.238 129.782 105.98 129.86 105.737C129.938 105.494 130.067 105.27 130.238 105.08C130.41 104.891 130.62 104.74 130.854 104.639C131.089 104.537 131.342 104.487 131.598 104.492H142.858C143.4 104.499 143.92 104.708 144.317 105.078C144.715 105.447 144.961 105.951 145.008 106.492C145.039 106.745 145.016 107.002 144.94 107.245C144.863 107.489 144.735 107.713 144.564 107.903C144.394 108.092 144.184 108.243 143.95 108.345C143.716 108.446 143.463 108.496 143.208 108.492Z" fill="#263238"/>
<path opacity="0.9" d="M178.348 75.0114H123.278L118.468 19.9514H173.528L178.348 75.0114Z" fill="white"/>
<path opacity="0.9" d="M129.908 13.4115C129.977 13.9833 129.922 14.5633 129.747 15.1119C129.571 15.6605 129.279 16.1648 128.891 16.5902C128.502 17.0155 128.027 17.352 127.496 17.5766C126.966 17.8012 126.393 17.9086 125.818 17.8915C124.599 17.8664 123.432 17.3973 122.535 16.5723C121.639 15.7474 121.074 14.6234 120.948 13.4115C120.878 12.8397 120.933 12.2596 121.109 11.711C121.284 11.1624 121.576 10.6582 121.964 10.2328C122.353 9.80738 122.828 9.47089 123.359 9.2463C123.889 9.0217 124.462 8.91431 125.038 8.93146C126.256 8.95656 127.423 9.42565 128.32 10.2506C129.216 11.0755 129.781 12.1996 129.908 13.4115Z" fill="white"/>
<path opacity="0.9" d="M166.888 15.4713H158.288C157.727 15.4619 157.189 15.2469 156.776 14.8672C156.363 14.4875 156.104 13.9695 156.048 13.4113C156.019 13.1491 156.047 12.8839 156.129 12.6332C156.211 12.3825 156.345 12.1521 156.523 11.9573C156.701 11.7624 156.918 11.6077 157.16 11.5032C157.402 11.3987 157.664 11.347 157.928 11.3513H166.528C167.088 11.3607 167.626 11.5757 168.039 11.9554C168.452 12.3351 168.711 12.8532 168.768 13.4113C168.796 13.6735 168.768 13.9388 168.686 14.1895C168.604 14.4402 168.47 14.6706 168.292 14.8654C168.114 15.0602 167.897 15.215 167.655 15.3195C167.413 15.4239 167.151 15.4757 166.888 15.4713Z" fill="white"/>
<path opacity="0.9" d="M148.058 82.6815H129.658C129.115 82.6736 128.595 82.4647 128.198 82.0952C127.801 81.7257 127.555 81.2219 127.508 80.6815C127.474 80.4279 127.496 80.1702 127.572 79.926C127.648 79.6818 127.776 79.4569 127.947 79.2668C128.118 79.0768 128.328 78.926 128.563 78.825C128.798 78.7239 129.052 78.675 129.308 78.6815H147.718C148.259 78.6916 148.778 78.9012 149.175 79.2703C149.572 79.6394 149.818 80.1419 149.868 80.6815C149.898 80.9353 149.873 81.1925 149.795 81.436C149.718 81.6794 149.589 81.9034 149.417 82.0929C149.246 82.2824 149.036 82.4329 148.801 82.5344C148.567 82.636 148.313 82.6861 148.058 82.6815Z" fill="white"/>
<path opacity="0.9" d="M172.058 90.4314H130.358C129.817 90.4192 129.299 90.2088 128.902 89.8402C128.506 89.4715 128.259 88.9703 128.208 88.4314C128.178 88.1777 128.202 87.9204 128.28 87.677C128.358 87.4335 128.487 87.2095 128.658 87.02C128.83 86.8306 129.04 86.68 129.274 86.5785C129.509 86.477 129.762 86.4268 130.018 86.4314H171.718C172.26 86.4413 172.781 86.6506 173.179 87.0195C173.577 87.3883 173.826 87.891 173.878 88.4314C173.908 88.6861 173.883 88.9442 173.805 89.1884C173.726 89.4325 173.597 89.6571 173.424 89.8467C173.251 90.0363 173.04 90.1867 172.804 90.2876C172.569 90.3885 172.314 90.4375 172.058 90.4314Z" fill="white"/>
<path opacity="0.9" d="M162.158 96.4515H130.888C130.347 96.4392 129.829 96.2288 129.432 95.8602C129.036 95.4915 128.789 94.9903 128.738 94.4515C128.706 94.1983 128.729 93.9412 128.806 93.6977C128.882 93.4543 129.01 93.2301 129.181 93.0404C129.352 92.8507 129.561 92.7 129.795 92.5984C130.029 92.4967 130.282 92.4467 130.538 92.4515H161.818C162.359 92.4637 162.877 92.6741 163.273 93.0428C163.669 93.4114 163.916 93.9127 163.968 94.4515C163.998 94.7053 163.973 94.9625 163.895 95.206C163.818 95.4494 163.689 95.6734 163.517 95.8629C163.346 96.0524 163.136 96.2029 162.901 96.3044C162.667 96.406 162.413 96.4561 162.158 96.4515Z" fill="white"/>
<path opacity="0.9" d="M168.218 102.472H131.418C130.875 102.464 130.355 102.255 129.958 101.885C129.561 101.516 129.315 101.012 129.268 100.472C129.236 100.218 129.259 99.9612 129.336 99.7178C129.412 99.4743 129.54 99.2501 129.711 99.0604C129.882 98.8708 130.091 98.72 130.325 98.6184C130.559 98.5168 130.812 98.4667 131.068 98.4715H167.878C168.419 98.4838 168.937 98.6942 169.333 99.0628C169.729 99.4315 169.976 99.9327 170.028 100.472C170.058 100.725 170.033 100.983 169.955 101.226C169.878 101.469 169.749 101.693 169.577 101.883C169.406 102.072 169.196 102.223 168.961 102.324C168.727 102.426 168.473 102.476 168.218 102.472Z" fill="white"/>
<path opacity="0.9" d="M143.208 108.492H131.938C131.397 108.479 130.879 108.269 130.482 107.9C130.086 107.532 129.839 107.03 129.788 106.492C129.758 106.238 129.782 105.98 129.86 105.737C129.938 105.494 130.067 105.27 130.238 105.08C130.41 104.891 130.62 104.74 130.854 104.639C131.089 104.537 131.342 104.487 131.598 104.492H142.858C143.4 104.499 143.92 104.708 144.317 105.078C144.715 105.447 144.961 105.951 145.008 106.492C145.039 106.745 145.016 107.002 144.94 107.245C144.863 107.489 144.735 107.713 144.564 107.903C144.394 108.092 144.184 108.243 143.95 108.345C143.716 108.446 143.463 108.496 143.208 108.492Z" fill="white"/>
<path d="M159.738 64.5814H142.818C141.639 64.5605 140.509 64.1084 139.641 63.3105C138.773 62.5126 138.227 61.4243 138.108 60.2514L136.628 43.3314C136.572 42.7559 136.637 42.1752 136.817 41.626C136.998 41.0768 137.291 40.5713 137.678 40.1414C138.068 39.7186 138.544 39.3827 139.072 39.1553C139.601 38.9279 140.172 38.8141 140.748 38.8214H157.668C158.846 38.8422 159.977 39.2943 160.845 40.0922C161.713 40.8901 162.258 41.9785 162.378 43.1514L163.858 60.0714C163.913 60.6468 163.849 61.2276 163.668 61.7768C163.487 62.3259 163.194 62.8315 162.808 63.2614C162.417 63.6841 161.942 64.0201 161.413 64.2475C160.884 64.4749 160.313 64.5886 159.738 64.5814ZM140.738 40.8514C140.442 40.8419 140.148 40.8966 139.875 41.0117C139.602 41.1268 139.358 41.2995 139.158 41.5181C138.959 41.7366 138.809 41.9957 138.719 42.2777C138.629 42.5596 138.601 42.8577 138.638 43.1514L140.118 60.0714C140.186 60.7419 140.497 61.3643 140.993 61.8212C141.488 62.278 142.134 62.5377 142.808 62.5514H159.728C160.023 62.5608 160.318 62.5061 160.59 62.391C160.863 62.2759 161.107 62.1032 161.307 61.8847C161.506 61.6661 161.656 61.407 161.746 61.1251C161.836 60.8431 161.864 60.5451 161.828 60.2514L160.348 43.3314C160.279 42.6608 159.968 42.0384 159.473 41.5816C158.977 41.1247 158.331 40.865 157.658 40.8514H140.738Z" fill="#263238"/>
<g opacity="0.5">
<path d="M159.738 64.5814H142.818C141.639 64.5605 140.509 64.1084 139.641 63.3105C138.773 62.5126 138.227 61.4243 138.108 60.2514L136.628 43.3314C136.572 42.7559 136.637 42.1752 136.817 41.626C136.998 41.0768 137.291 40.5713 137.678 40.1414C138.068 39.7186 138.544 39.3827 139.072 39.1553C139.601 38.9279 140.172 38.8141 140.748 38.8214H157.668C158.846 38.8422 159.977 39.2943 160.845 40.0922C161.713 40.8901 162.258 41.9785 162.378 43.1514L163.858 60.0714C163.913 60.6468 163.849 61.2276 163.668 61.7768C163.487 62.3259 163.194 62.8315 162.808 63.2614C162.417 63.6841 161.942 64.0201 161.413 64.2475C160.884 64.4749 160.313 64.5886 159.738 64.5814ZM140.738 40.8514C140.442 40.8419 140.148 40.8966 139.875 41.0117C139.602 41.1268 139.358 41.2995 139.158 41.5181C138.959 41.7366 138.809 41.9957 138.719 42.2777C138.629 42.5596 138.601 42.8577 138.638 43.1514L140.118 60.0714C140.186 60.7419 140.497 61.3643 140.993 61.8212C141.488 62.278 142.134 62.5377 142.808 62.5514H159.728C160.023 62.5608 160.318 62.5061 160.59 62.391C160.863 62.2759 161.107 62.1032 161.307 61.8847C161.506 61.6661 161.656 61.407 161.746 61.1251C161.836 60.8431 161.864 60.5451 161.828 60.2514L160.348 43.3314C160.279 42.6608 159.968 42.0384 159.473 41.5816C158.977 41.1247 158.331 40.865 157.658 40.8514H140.738Z" fill="white"/>
</g>
<path d="M146.738 58.7515L133.818 46.8715C133.385 46.4695 133.129 45.9131 133.105 45.3232C133.08 44.7333 133.29 44.1577 133.688 43.7215C134.09 43.2891 134.646 43.0328 135.236 43.0085C135.826 42.9842 136.401 43.1937 136.838 43.5915L146.458 52.4415L165.118 32.0015C165.314 31.7851 165.551 31.6096 165.815 31.4849C166.079 31.3603 166.365 31.2889 166.656 31.275C166.948 31.2611 167.24 31.3048 167.514 31.4037C167.789 31.5027 168.042 31.6548 168.258 31.8515C168.693 32.2507 168.953 32.8057 168.981 33.3956C169.009 33.9855 168.803 34.5627 168.408 35.0015L146.738 58.7515Z" fill="#12C2E9"/>
<g opacity="0.2">
<path d="M146.738 58.7515L133.818 46.8715C133.385 46.4695 133.129 45.9131 133.105 45.3232C133.08 44.7333 133.29 44.1577 133.688 43.7215C134.09 43.2891 134.646 43.0328 135.236 43.0085C135.826 42.9842 136.401 43.1937 136.838 43.5915L146.458 52.4415L165.118 32.0015C165.314 31.7851 165.551 31.6096 165.815 31.4849C166.079 31.3603 166.365 31.2889 166.656 31.275C166.948 31.2611 167.24 31.3048 167.514 31.4037C167.789 31.5027 168.042 31.6548 168.258 31.8515C168.693 32.2507 168.953 32.8057 168.981 33.3956C169.009 33.9855 168.803 34.5627 168.408 35.0015L146.738 58.7515Z" fill="black"/>
</g>
<path d="M179.218 252.682C178.773 252.511 178.282 252.511 177.838 252.682H143.538L129.128 294.942H165.308L166.058 292.682H168.238L180.348 255.112C180.508 254.639 180.48 254.123 180.27 253.67C180.059 253.217 179.682 252.863 179.218 252.682ZM163.488 272.602L162.248 276.462C161.864 277.627 161.121 278.642 160.126 279.36C159.131 280.079 157.935 280.464 156.708 280.462H154.978C154.274 280.462 153.58 280.297 152.953 279.978C152.326 279.66 151.782 279.197 151.368 278.629C150.954 278.06 150.679 277.402 150.568 276.707C150.457 276.012 150.512 275.301 150.728 274.632L151.978 270.772C152.36 269.607 153.1 268.592 154.093 267.874C155.087 267.155 156.282 266.77 157.508 266.772H159.248C159.953 266.771 160.648 266.938 161.276 267.258C161.904 267.579 162.447 268.043 162.861 268.614C163.275 269.185 163.547 269.846 163.656 270.542C163.765 271.239 163.707 271.952 163.488 272.622V272.602Z" fill="#263238"/>
<path opacity="0.3" d="M179.218 252.682C178.773 252.511 178.282 252.511 177.838 252.682H143.538L129.128 294.942H165.308L166.058 292.682H168.238L180.348 255.112C180.508 254.639 180.48 254.123 180.27 253.67C180.059 253.217 179.682 252.863 179.218 252.682ZM163.488 272.602L162.248 276.462C161.864 277.627 161.121 278.642 160.126 279.36C159.131 280.079 157.935 280.464 156.708 280.462H154.978C154.274 280.462 153.58 280.297 152.953 279.978C152.326 279.66 151.782 279.197 151.368 278.629C150.954 278.06 150.679 277.402 150.568 276.707C150.457 276.012 150.512 275.301 150.728 274.632L151.978 270.772C152.36 269.607 153.1 268.592 154.093 267.874C155.087 267.155 156.282 266.77 157.508 266.772H159.248C159.953 266.771 160.648 266.938 161.276 267.258C161.904 267.579 162.447 268.043 162.861 268.614C163.275 269.185 163.547 269.846 163.656 270.542C163.765 271.239 163.707 271.952 163.488 272.622V272.602Z" fill="white"/>
<path d="M207.548 292.681H171.868C172.38 292.681 172.87 292.885 173.232 293.247C173.594 293.609 173.798 294.1 173.798 294.611V295.341C173.799 295.595 173.75 295.847 173.653 296.082C173.557 296.316 173.415 296.53 173.235 296.709C173.056 296.889 172.843 297.031 172.608 297.127C172.373 297.224 172.121 297.273 171.868 297.271H207.548C207.801 297.271 208.051 297.221 208.285 297.124C208.518 297.027 208.73 296.885 208.909 296.706C209.087 296.526 209.228 296.313 209.324 296.079C209.42 295.845 209.469 295.594 209.468 295.341V294.611C209.468 294.101 209.266 293.612 208.906 293.25C208.546 292.889 208.058 292.684 207.548 292.681Z" fill="#263238"/>
<path opacity="0.3" d="M207.548 292.681H171.868C172.38 292.681 172.87 292.885 173.232 293.247C173.594 293.609 173.798 294.1 173.798 294.611V295.341C173.799 295.595 173.75 295.847 173.653 296.082C173.557 296.316 173.415 296.53 173.235 296.709C173.056 296.889 172.843 297.031 172.608 297.127C172.373 297.224 172.121 297.273 171.868 297.271H207.548C207.801 297.271 208.051 297.221 208.285 297.124C208.518 297.027 208.73 296.885 208.909 296.706C209.087 296.526 209.228 296.313 209.324 296.079C209.42 295.845 209.469 295.594 209.468 295.341V294.611C209.468 294.101 209.266 293.612 208.906 293.25C208.546 292.889 208.058 292.684 207.548 292.681Z" fill="white"/>
<path d="M171.868 297.251H127.058L141.058 253.911C141.138 253.662 141.269 253.431 141.441 253.233C141.614 253.035 141.825 252.875 142.062 252.762C142.299 252.648 142.556 252.585 142.819 252.574C143.081 252.564 143.343 252.607 143.588 252.701C144.047 252.879 144.42 253.226 144.632 253.67C144.844 254.114 144.878 254.623 144.728 255.091L132.558 292.681H171.868C172.38 292.681 172.87 292.885 173.232 293.247C173.594 293.609 173.798 294.1 173.798 294.611V295.341C173.796 295.594 173.745 295.843 173.648 296.075C173.55 296.308 173.407 296.519 173.228 296.696C173.049 296.873 172.837 297.014 172.603 297.109C172.37 297.204 172.12 297.253 171.868 297.251Z" fill="#263238"/>
<g opacity="0.6">
<path d="M171.868 297.251H127.058L141.058 253.911C141.138 253.662 141.269 253.431 141.441 253.233C141.614 253.035 141.825 252.875 142.062 252.762C142.299 252.648 142.556 252.585 142.819 252.574C143.081 252.564 143.343 252.607 143.588 252.701C144.047 252.879 144.42 253.226 144.632 253.67C144.844 254.114 144.878 254.623 144.728 255.091L132.558 292.681H171.868C172.38 292.681 172.87 292.885 173.232 293.247C173.594 293.609 173.798 294.1 173.798 294.611V295.341C173.796 295.594 173.745 295.843 173.648 296.075C173.55 296.308 173.407 296.519 173.228 296.696C173.049 296.873 172.837 297.014 172.603 297.109C172.37 297.204 172.12 297.253 171.868 297.251Z" fill="white"/>
</g>
<path d="M159.248 266.792H157.508C157.378 266.792 157.258 266.792 157.128 266.792C157.785 266.865 158.417 267.083 158.979 267.431C159.541 267.779 160.019 268.247 160.378 268.802C160.737 269.357 160.968 269.985 161.054 270.641C161.141 271.296 161.08 271.962 160.878 272.592L159.638 276.452C159.278 277.559 158.594 278.533 157.674 279.246C156.754 279.96 155.64 280.38 154.478 280.452C154.644 280.462 154.811 280.462 154.978 280.452H156.708C157.935 280.454 159.131 280.069 160.126 279.35C161.121 278.632 161.864 277.617 162.248 276.452L163.488 272.592C163.698 271.925 163.748 271.218 163.635 270.528C163.521 269.838 163.247 269.184 162.834 268.619C162.422 268.055 161.882 267.595 161.259 267.278C160.636 266.96 159.947 266.794 159.248 266.792Z" fill="#263238"/>
<path d="M81.4676 129.601H63.7376C62.8755 129.585 62.0197 129.752 61.2274 130.093C60.4352 130.433 59.7248 130.939 59.1436 131.576C58.5624 132.213 58.1238 132.967 57.8572 133.787C57.5906 134.607 57.5021 135.474 57.5976 136.331L67.5976 251.331C67.7856 253.155 68.6352 254.847 69.9858 256.087C71.3363 257.327 73.0944 258.03 74.9276 258.061H92.6476L81.4676 129.601Z" fill="#12C2E9"/>
<path opacity="0.2" d="M81.4676 129.601H63.7376C62.8755 129.585 62.0197 129.752 61.2274 130.093C60.4352 130.433 59.7248 130.939 59.1436 131.576C58.5624 132.213 58.1238 132.967 57.8572 133.787C57.5906 134.607 57.5021 135.474 57.5976 136.331L67.5976 251.331C67.7856 253.155 68.6352 254.847 69.9858 256.087C71.3363 257.327 73.0944 258.03 74.9276 258.061H92.6476L81.4676 129.601Z" fill="white"/>
<path d="M238.328 258.011H79.5576C77.7248 257.981 75.9668 257.279 74.6174 256.039C73.268 254.798 72.4212 253.105 72.2376 251.281L62.1776 136.281C62.0837 135.424 62.1736 134.556 62.4414 133.736C62.7092 132.916 63.1487 132.162 63.7306 131.526C64.3126 130.889 65.0236 130.383 65.8163 130.043C66.609 129.702 67.4651 129.535 68.3276 129.551H227.058C228.89 129.581 230.648 130.283 231.998 131.524C233.347 132.765 234.194 134.458 234.378 136.281L244.438 251.281C244.531 252.136 244.442 253 244.177 253.817C243.911 254.634 243.475 255.386 242.898 256.022C242.32 256.658 241.614 257.165 240.826 257.507C240.038 257.85 239.187 258.022 238.328 258.011Z" fill="#12C2E9"/>
<path opacity="0.5" d="M238.328 258.011H79.5576C77.7248 257.981 75.9668 257.279 74.6174 256.039C73.268 254.798 72.4212 253.105 72.2376 251.281L62.1776 136.281C62.0837 135.424 62.1736 134.556 62.4414 133.736C62.7092 132.916 63.1487 132.162 63.7306 131.526C64.3126 130.889 65.0236 130.383 65.8163 130.043C66.609 129.702 67.4651 129.535 68.3276 129.551H227.058C228.89 129.581 230.648 130.283 231.998 131.524C233.347 132.765 234.194 134.458 234.378 136.281L244.438 251.281C244.531 252.136 244.442 253 244.177 253.817C243.911 254.634 243.475 255.386 242.898 256.022C242.32 256.658 241.614 257.165 240.826 257.507C240.038 257.85 239.187 258.022 238.328 258.011Z" fill="white"/>
<path d="M71.2177 239.681L72.2177 251.291C72.4012 253.115 73.2481 254.808 74.5975 256.049C75.9469 257.289 77.7048 257.991 79.5376 258.021H238.328C239.19 258.038 240.046 257.87 240.839 257.53C241.632 257.19 242.343 256.684 242.925 256.047C243.507 255.41 243.946 254.657 244.214 253.837C244.482 253.017 244.572 252.149 244.478 251.291L243.478 239.681H71.2177Z" fill="#12C2E9"/>
<path opacity="0.2" d="M71.2177 239.681L72.2177 251.291C72.4012 253.115 73.2481 254.808 74.5975 256.049C75.9469 257.289 77.7048 257.991 79.5376 258.021H238.328C239.19 258.038 240.046 257.87 240.839 257.53C241.632 257.19 242.343 256.684 242.925 256.047C243.507 255.41 243.946 254.657 244.214 253.837C244.482 253.017 244.572 252.149 244.478 251.291L243.478 239.681H71.2177Z" fill="white"/>
<path d="M67.8276 135.331L76.4576 233.931H237.228L228.598 135.331H67.8276Z" fill="white"/>
<path d="M105.698 150.741H75.6277L74.6877 139.921H104.748L105.698 150.741Z" fill="#263238"/>
<path d="M156.228 145.331H137.958L137.488 139.921H155.758L156.228 145.331Z" fill="#263238"/>
<path d="M121.558 229.481H91.6176L90.3476 214.991H120.288L121.558 229.481Z" fill="#263238"/>
<path d="M157.738 229.481H127.798L126.528 214.991H156.468L157.738 229.481Z" fill="#263238"/>
<path d="M193.918 229.481H163.978L162.708 214.991H192.648L193.918 229.481Z" fill="#263238"/>
<path d="M230.098 229.481H200.158L198.888 214.991H228.828L230.098 229.481Z" fill="#263238"/>
<path d="M178.398 145.331H160.128L159.658 139.921H177.928L178.398 145.331Z" fill="#263238"/>
<path d="M200.568 145.331H182.298L181.818 139.921H200.098L200.568 145.331Z" fill="#263238"/>
<path d="M222.738 145.331H204.468L203.988 139.921H222.258L222.738 145.331Z" fill="#263238"/>
<path d="M235.098 210.112H74.3276L69.7876 158.292H230.568L235.098 210.112Z" fill="#263238"/>
<g opacity="0.9">
<path d="M105.698 150.741H75.6276L74.6876 139.921H104.748L105.698 150.741Z" fill="white"/>
<path d="M156.228 145.331H137.958L137.488 139.921H155.758L156.228 145.331Z" fill="white"/>
<path d="M121.558 229.481H91.6176L90.3476 214.991H120.288L121.558 229.481Z" fill="white"/>
<path d="M157.738 229.481H127.798L126.528 214.991H156.468L157.738 229.481Z" fill="white"/>
<path d="M193.918 229.481H163.978L162.708 214.991H192.648L193.918 229.481Z" fill="white"/>
<path d="M230.098 229.481H200.158L198.888 214.991H228.828L230.098 229.481Z" fill="white"/>
<path d="M178.398 145.331H160.128L159.658 139.921H177.928L178.398 145.331Z" fill="white"/>
<path d="M200.568 145.331H182.298L181.818 139.921H200.098L200.568 145.331Z" fill="white"/>
<path d="M222.738 145.331H204.468L203.988 139.921H222.258L222.738 145.331Z" fill="white"/>
<path d="M235.098 210.112H74.3276L69.7876 158.292H230.568L235.098 210.112Z" fill="white"/>
</g>
<path d="M171.208 196.851H152.408C151.099 196.826 149.845 196.324 148.881 195.437C147.918 194.551 147.312 193.343 147.178 192.041L145.528 173.241C145.465 172.602 145.537 171.957 145.739 171.348C145.94 170.738 146.267 170.177 146.698 169.701C147.131 169.231 147.659 168.857 148.246 168.603C148.834 168.35 149.468 168.223 150.108 168.231H168.908C170.216 168.256 171.471 168.759 172.434 169.645C173.398 170.531 174.004 171.739 174.138 173.041L175.788 191.841C175.85 192.48 175.778 193.125 175.576 193.735C175.375 194.344 175.048 194.905 174.618 195.381C174.184 195.852 173.657 196.226 173.069 196.479C172.482 196.732 171.847 196.859 171.208 196.851ZM150.108 170.481C149.779 170.472 149.452 170.533 149.149 170.662C148.847 170.79 148.575 170.982 148.354 171.226C148.133 171.469 147.967 171.757 147.867 172.07C147.768 172.384 147.737 172.715 147.778 173.041L149.418 191.841C149.493 192.589 149.841 193.282 150.393 193.791C150.946 194.3 151.666 194.588 152.418 194.601H171.218C171.545 194.608 171.87 194.545 172.171 194.418C172.473 194.29 172.744 194.101 172.968 193.861C173.188 193.616 173.354 193.327 173.455 193.014C173.557 192.7 173.592 192.369 173.558 192.041L171.908 173.241C171.832 172.494 171.485 171.8 170.932 171.292C170.379 170.783 169.659 170.495 168.908 170.481H150.108Z" fill="#263238"/>
<g opacity="0.5">
<path d="M171.208 196.851H152.408C151.099 196.826 149.845 196.324 148.881 195.437C147.918 194.551 147.312 193.343 147.178 192.041L145.528 173.241C145.465 172.602 145.537 171.957 145.739 171.348C145.94 170.738 146.267 170.177 146.698 169.701C147.131 169.231 147.659 168.857 148.246 168.603C148.834 168.35 149.468 168.223 150.108 168.231H168.908C170.216 168.256 171.471 168.759 172.434 169.645C173.398 170.531 174.004 171.739 174.138 173.041L175.788 191.841C175.85 192.48 175.778 193.125 175.576 193.735C175.375 194.344 175.048 194.905 174.618 195.381C174.184 195.852 173.657 196.226 173.069 196.479C172.482 196.732 171.847 196.859 171.208 196.851ZM150.108 170.481C149.779 170.472 149.452 170.533 149.149 170.662C148.847 170.79 148.575 170.982 148.354 171.226C148.133 171.469 147.967 171.757 147.867 172.07C147.768 172.384 147.737 172.715 147.778 173.041L149.418 191.841C149.493 192.589 149.841 193.282 150.393 193.791C150.946 194.3 151.666 194.588 152.418 194.601H171.218C171.545 194.608 171.87 194.545 172.171 194.418C172.473 194.29 172.744 194.101 172.968 193.861C173.188 193.616 173.354 193.327 173.455 193.014C173.557 192.7 173.592 192.369 173.558 192.041L171.908 173.241C171.832 172.494 171.485 171.8 170.932 171.292C170.379 170.783 169.659 170.495 168.908 170.481H150.108Z" fill="white"/>
</g>
<path d="M156.758 190.371L142.408 177.171C141.926 176.727 141.641 176.11 141.615 175.455C141.589 174.801 141.823 174.163 142.268 173.681C142.487 173.442 142.751 173.249 143.045 173.112C143.339 172.975 143.657 172.898 143.982 172.884C144.306 172.87 144.629 172.92 144.934 173.031C145.239 173.142 145.519 173.312 145.758 173.531L156.458 183.361L177.178 160.681C177.621 160.197 178.238 159.908 178.895 159.878C179.551 159.848 180.192 160.079 180.678 160.521C181.162 160.965 181.451 161.582 181.481 162.238C181.511 162.895 181.28 163.536 180.838 164.021L156.758 190.371Z" fill="#12C2E9"/>
<g opacity="0.2">
<path d="M156.758 190.371L142.408 177.171C141.926 176.727 141.641 176.11 141.615 175.455C141.589 174.801 141.823 174.163 142.268 173.681C142.487 173.442 142.751 173.249 143.045 173.112C143.339 172.975 143.657 172.898 143.982 172.884C144.306 172.87 144.629 172.92 144.934 173.031C145.239 173.142 145.519 173.312 145.758 173.531L156.458 183.361L177.178 160.681C177.621 160.197 178.238 159.908 178.895 159.878C179.551 159.848 180.192 160.079 180.678 160.521C181.162 160.965 181.451 161.582 181.481 162.238C181.511 162.895 181.28 163.536 180.838 164.021L156.758 190.371Z" fill="black"/>
</g>
<path d="M16.7776 21.4313H8.14759C7.01126 21.4103 5.88351 21.6317 4.83944 22.0807C3.79536 22.5297 2.85894 23.196 2.09255 24.0353C1.32616 24.8745 0.747383 25.8675 0.394772 26.9479C0.0421607 28.0284 -0.0761946 29.1715 0.0475962 30.3013L9.6776 140.371C9.92409 142.774 11.0419 145.003 12.82 146.637C14.598 148.271 16.913 149.198 19.3276 149.241H27.9576L16.7776 21.4313Z" fill="#12C2E9"/>
<path opacity="0.2" d="M16.7776 21.4313H8.14759C7.01126 21.4103 5.88351 21.6317 4.83944 22.0807C3.79536 22.5297 2.85894 23.196 2.09255 24.0353C1.32616 24.8745 0.747383 25.8675 0.394772 26.9479C0.0421607 28.0284 -0.0761946 29.1715 0.0475962 30.3013L9.6776 140.371C9.92409 142.774 11.0419 145.003 12.82 146.637C14.598 148.271 16.913 149.198 19.3276 149.241H27.9576L16.7776 21.4313Z" fill="white"/>
<path d="M22.7676 149.241H98.3876C99.5231 149.261 100.65 149.038 101.693 148.589C102.735 148.139 103.671 147.473 104.436 146.633C105.201 145.794 105.779 144.802 106.131 143.722C106.483 142.643 106.601 141.5 106.478 140.371L96.8576 30.3013C96.6111 27.8989 95.4933 25.67 93.7153 24.0357C91.9372 22.4014 89.6222 21.4749 87.2076 21.4313H11.5876C10.4513 21.4103 9.3235 21.6317 8.27943 22.0807C7.23536 22.5297 6.29895 23.196 5.53255 24.0353C4.76616 24.8745 4.18738 25.8675 3.83477 26.9479C3.48216 28.0284 3.36381 29.1715 3.4876 30.3013L13.1176 140.371C13.3641 142.774 14.4819 145.003 16.26 146.637C18.038 148.271 20.353 149.198 22.7676 149.241Z" fill="#12C2E9"/>
<path d="M103.388 140.371L93.7576 30.3013H6.5876L16.2176 140.371H103.388Z" fill="white"/>
<path d="M60.4076 147.341C59.6529 147.318 58.9323 147.022 58.3802 146.506C57.8282 145.991 57.4825 145.293 57.4076 144.541C57.3677 144.186 57.404 143.827 57.5141 143.487C57.6241 143.148 57.8054 142.835 58.0458 142.571C58.2863 142.307 58.5803 142.097 58.9082 141.956C59.2362 141.815 59.5905 141.745 59.9476 141.751C60.7014 141.772 61.4219 142.067 61.9742 142.58C62.5264 143.094 62.8725 143.791 62.9476 144.541C62.9857 144.896 62.9482 145.256 62.8377 145.595C62.7271 145.935 62.5458 146.247 62.3059 146.511C62.066 146.776 61.7728 146.987 61.4456 147.13C61.1184 147.273 60.7647 147.345 60.4076 147.341ZM59.9876 142.441C59.7178 142.436 59.4499 142.487 59.2017 142.593C58.9535 142.699 58.7306 142.857 58.5481 143.055C58.3655 143.254 58.2273 143.489 58.1427 143.745C58.0581 144.002 58.0291 144.273 58.0576 144.541C58.1181 145.111 58.3839 145.639 58.8052 146.028C59.2266 146.416 59.7748 146.638 60.3476 146.651C60.6175 146.656 60.8852 146.603 61.133 146.496C61.3808 146.389 61.6029 146.23 61.7846 146.03C61.9662 145.831 62.1033 145.595 62.1865 145.338C62.2698 145.081 62.2975 144.81 62.2676 144.541C62.2113 143.973 61.9478 143.444 61.5275 143.057C61.1071 142.67 60.559 142.451 59.9876 142.441Z" fill="#12C2E9"/>
<path d="M89.9776 41.0013H83.5576L82.9976 34.5813H89.4176L89.9776 41.0013Z" fill="#263238"/>
<path d="M30.8176 41.0013H12.4676L11.9076 34.5813H30.2576L30.8176 41.0013Z" fill="#263238"/>
<path d="M94.1976 89.1613H16.6876L13.1576 48.8013H90.6576L94.1976 89.1613Z" fill="#263238"/>
<path d="M65.4976 133.391H20.5576L17.1676 94.6614H62.1176L65.4976 133.391Z" fill="#263238"/>
<path d="M77.7876 103.491H67.4676L66.6976 94.6614H77.0176L77.7876 103.491Z" fill="#263238"/>
<path d="M92.1876 97.6813H80.8876C80.4822 97.6736 80.0936 97.5179 79.7951 97.2434C79.4967 96.9689 79.3091 96.5946 79.2676 96.1913C79.2478 96.0017 79.2684 95.8102 79.328 95.6292C79.3875 95.4482 79.4847 95.2818 79.6132 95.1411C79.7417 95.0003 79.8985 94.8884 80.0733 94.8126C80.2482 94.7368 80.4371 94.6988 80.6276 94.7013H91.9276C92.3324 94.7111 92.7198 94.8675 93.0178 95.1416C93.3158 95.4157 93.5041 95.7887 93.5476 96.1913C93.5674 96.3808 93.5468 96.5724 93.4872 96.7534C93.4277 96.9344 93.3305 97.1007 93.202 97.2415C93.0735 97.3822 92.9167 97.4942 92.7419 97.57C92.567 97.6458 92.3781 97.6837 92.1876 97.6813Z" fill="#263238"/>
<path d="M93.9576 103.491H81.3976C80.9928 103.482 80.6054 103.325 80.3074 103.051C80.0094 102.777 79.8211 102.404 79.7776 102.001C79.7578 101.812 79.7784 101.62 79.838 101.439C79.8975 101.258 79.9947 101.092 80.1232 100.951C80.2517 100.81 80.4085 100.698 80.5833 100.623C80.7581 100.547 80.9471 100.509 81.1376 100.511H93.6976C94.103 100.519 94.4916 100.675 94.7901 100.949C95.0885 101.224 95.2761 101.598 95.3176 102.001C95.3374 102.191 95.3168 102.382 95.2572 102.563C95.1977 102.744 95.1005 102.911 94.972 103.052C94.8435 103.192 94.6867 103.304 94.5119 103.38C94.337 103.456 94.1481 103.494 93.9576 103.491Z" fill="#263238"/>
<path d="M93.2076 109.341H69.4776C69.0711 109.334 68.6812 109.179 68.3812 108.904C68.0811 108.63 67.8914 108.256 67.8476 107.851C67.8262 107.662 67.8456 107.469 67.9045 107.288C67.9635 107.106 68.0606 106.939 68.1894 106.798C68.3182 106.657 68.4757 106.545 68.6513 106.469C68.8269 106.394 69.0166 106.357 69.2076 106.361H92.9476C93.3537 106.367 93.7434 106.522 94.0423 106.797C94.3412 107.072 94.5283 107.447 94.5676 107.851C94.5874 108.041 94.5668 108.232 94.5072 108.414C94.4477 108.595 94.3505 108.761 94.222 108.902C94.0935 109.042 93.9367 109.154 93.7619 109.23C93.5871 109.306 93.3981 109.344 93.2076 109.341Z" fill="#263238"/>
<path d="M94.9776 115.181H69.9776C69.5715 115.176 69.1818 115.021 68.8829 114.746C68.584 114.471 68.397 114.095 68.3576 113.691C68.3362 113.501 68.3556 113.309 68.4145 113.127C68.4735 112.946 68.5706 112.779 68.6994 112.638C68.8282 112.496 68.9857 112.385 69.1613 112.309C69.3369 112.234 69.5266 112.197 69.7176 112.201H94.7176C95.1237 112.207 95.5135 112.362 95.8124 112.637C96.1112 112.912 96.2983 113.287 96.3376 113.691C96.359 113.881 96.3396 114.073 96.2807 114.255C96.2217 114.437 96.1246 114.604 95.9958 114.745C95.867 114.886 95.7095 114.998 95.5339 115.073C95.3583 115.148 95.1686 115.185 94.9776 115.181Z" fill="#263238"/>
<path d="M92.2776 121.031H70.4976C70.0922 121.024 69.7036 120.868 69.4052 120.593C69.1067 120.319 68.9191 119.945 68.8776 119.541C68.8562 119.351 68.8756 119.159 68.9345 118.978C68.9935 118.796 69.0906 118.629 69.2194 118.488C69.3482 118.347 69.5057 118.235 69.6813 118.159C69.8569 118.084 70.0466 118.047 70.2376 118.051H92.0576C92.4637 118.057 92.8534 118.212 93.1523 118.487C93.4512 118.762 93.6383 119.137 93.6776 119.541C93.6996 119.735 93.6793 119.93 93.618 120.115C93.5568 120.3 93.456 120.469 93.3228 120.611C93.1896 120.752 93.0271 120.864 92.8466 120.936C92.6661 121.009 92.4719 121.041 92.2776 121.031Z" fill="#263238"/>
<path d="M96.0576 126.881H71.0576C70.6522 126.874 70.2636 126.718 69.9651 126.443C69.6667 126.169 69.4791 125.795 69.4376 125.391C69.4178 125.202 69.4384 125.01 69.498 124.829C69.5575 124.648 69.6547 124.482 69.7832 124.341C69.9117 124.2 70.0685 124.088 70.2433 124.013C70.4181 123.937 70.6071 123.899 70.7976 123.901H95.7976C96.2024 123.911 96.5898 124.067 96.8878 124.342C97.1858 124.616 97.3741 124.989 97.4176 125.391C97.4374 125.581 97.4168 125.772 97.3572 125.953C97.2977 126.134 97.2005 126.301 97.072 126.441C96.9435 126.582 96.7867 126.694 96.6119 126.77C96.437 126.846 96.2481 126.884 96.0576 126.881Z" fill="#263238"/>
<path d="M88.7476 132.731H71.5176C71.1122 132.724 70.7236 132.568 70.4252 132.293C70.1267 132.019 69.9391 131.645 69.8976 131.241C69.8762 131.051 69.8956 130.859 69.9545 130.677C70.0135 130.496 70.1106 130.329 70.2394 130.188C70.3682 130.046 70.5257 129.935 70.7013 129.859C70.8769 129.784 71.0666 129.747 71.2576 129.751H88.4876C88.8937 129.757 89.2835 129.912 89.5824 130.187C89.8813 130.462 90.0683 130.837 90.1076 131.241C90.1274 131.431 90.1068 131.622 90.0472 131.803C89.9877 131.984 89.8905 132.151 89.762 132.291C89.6335 132.432 89.4767 132.544 89.3019 132.62C89.127 132.696 88.9382 132.734 88.7476 132.731Z" fill="#263238"/>
<path opacity="0.9" d="M89.9776 41.0013H83.5576L82.9976 34.5813H89.4176L89.9776 41.0013Z" fill="white"/>
<path opacity="0.9" d="M30.8176 41.0013H12.4676L11.9076 34.5813H30.2576L30.8176 41.0013Z" fill="white"/>
<path opacity="0.9" d="M94.1976 89.1613H16.6876L13.1576 48.8013H90.6576L94.1976 89.1613Z" fill="white"/>
<path opacity="0.9" d="M65.4976 133.391H20.5576L17.1676 94.6614H62.1176L65.4976 133.391Z" fill="white"/>
<path opacity="0.9" d="M77.7876 103.491H67.4676L66.6976 94.6614H77.0176L77.7876 103.491Z" fill="white"/>
<path opacity="0.9" d="M92.1876 97.6813H80.8876C80.4822 97.6736 80.0936 97.5179 79.7951 97.2434C79.4967 96.9689 79.3091 96.5946 79.2676 96.1913C79.2478 96.0017 79.2684 95.8102 79.328 95.6292C79.3875 95.4482 79.4847 95.2818 79.6132 95.1411C79.7417 95.0003 79.8985 94.8884 80.0733 94.8126C80.2482 94.7368 80.4371 94.6988 80.6276 94.7013H91.9276C92.3324 94.7111 92.7198 94.8675 93.0178 95.1416C93.3158 95.4157 93.5041 95.7887 93.5476 96.1913C93.5674 96.3808 93.5468 96.5724 93.4872 96.7534C93.4277 96.9344 93.3305 97.1007 93.202 97.2415C93.0735 97.3822 92.9167 97.4942 92.7419 97.57C92.567 97.6458 92.3781 97.6837 92.1876 97.6813Z" fill="white"/>
<path opacity="0.9" d="M93.9576 103.491H81.3976C80.9928 103.482 80.6054 103.325 80.3074 103.051C80.0094 102.777 79.8211 102.404 79.7776 102.001C79.7578 101.812 79.7784 101.62 79.838 101.439C79.8975 101.258 79.9947 101.092 80.1232 100.951C80.2517 100.81 80.4085 100.698 80.5833 100.623C80.7581 100.547 80.9471 100.509 81.1376 100.511H93.6976C94.103 100.519 94.4916 100.675 94.7901 100.949C95.0885 101.224 95.2761 101.598 95.3176 102.001C95.3374 102.191 95.3168 102.382 95.2572 102.563C95.1977 102.744 95.1005 102.911 94.972 103.052C94.8435 103.192 94.6867 103.304 94.5119 103.38C94.337 103.456 94.1481 103.494 93.9576 103.491Z" fill="white"/>
<path opacity="0.9" d="M93.2076 109.341H69.4776C69.0711 109.334 68.6812 109.179 68.3812 108.904C68.0811 108.63 67.8914 108.256 67.8476 107.851C67.8262 107.662 67.8456 107.469 67.9045 107.288C67.9635 107.106 68.0606 106.939 68.1894 106.798C68.3182 106.657 68.4757 106.545 68.6513 106.469C68.8269 106.394 69.0166 106.357 69.2076 106.361H92.9476C93.3537 106.367 93.7434 106.522 94.0423 106.797C94.3412 107.072 94.5283 107.447 94.5676 107.851C94.5874 108.041 94.5668 108.232 94.5072 108.414C94.4477 108.595 94.3505 108.761 94.222 108.902C94.0935 109.042 93.9367 109.154 93.7619 109.23C93.5871 109.306 93.3981 109.344 93.2076 109.341Z" fill="white"/>
<path opacity="0.9" d="M94.9776 115.181H69.9776C69.5715 115.176 69.1818 115.021 68.8829 114.746C68.584 114.471 68.397 114.095 68.3576 113.691C68.3362 113.501 68.3556 113.309 68.4145 113.127C68.4735 112.946 68.5706 112.779 68.6994 112.638C68.8282 112.496 68.9857 112.385 69.1613 112.309C69.3369 112.234 69.5266 112.197 69.7176 112.201H94.7176C95.1237 112.207 95.5135 112.362 95.8124 112.637C96.1112 112.912 96.2983 113.287 96.3376 113.691C96.359 113.881 96.3396 114.073 96.2807 114.255C96.2217 114.437 96.1246 114.604 95.9958 114.745C95.867 114.886 95.7095 114.998 95.5339 115.073C95.3583 115.148 95.1686 115.185 94.9776 115.181Z" fill="white"/>
<path opacity="0.9" d="M92.2776 121.031H70.4976C70.0922 121.024 69.7036 120.868 69.4052 120.593C69.1067 120.319 68.9191 119.945 68.8776 119.541C68.8562 119.351 68.8756 119.159 68.9345 118.978C68.9935 118.796 69.0906 118.629 69.2194 118.488C69.3482 118.347 69.5057 118.235 69.6813 118.159C69.8569 118.084 70.0466 118.047 70.2376 118.051H92.0576C92.4637 118.057 92.8534 118.212 93.1523 118.487C93.4512 118.762 93.6383 119.137 93.6776 119.541C93.6996 119.735 93.6793 119.93 93.618 120.115C93.5568 120.3 93.456 120.469 93.3228 120.611C93.1896 120.752 93.0271 120.864 92.8466 120.936C92.6661 121.009 92.4719 121.041 92.2776 121.031Z" fill="white"/>
<path opacity="0.9" d="M96.0576 126.881H71.0576C70.6522 126.874 70.2636 126.718 69.9651 126.443C69.6667 126.169 69.4791 125.795 69.4376 125.391C69.4178 125.202 69.4384 125.01 69.498 124.829C69.5575 124.648 69.6547 124.482 69.7832 124.341C69.9117 124.2 70.0685 124.088 70.2433 124.013C70.4181 123.937 70.6071 123.899 70.7976 123.901H95.7976C96.2024 123.911 96.5898 124.067 96.8878 124.342C97.1858 124.616 97.3741 124.989 97.4176 125.391C97.4374 125.581 97.4168 125.772 97.3572 125.953C97.2977 126.134 97.2005 126.301 97.072 126.441C96.9435 126.582 96.7867 126.694 96.6119 126.77C96.437 126.846 96.2481 126.884 96.0576 126.881Z" fill="white"/>
<path opacity="0.9" d="M88.7476 132.731H71.5176C71.1122 132.724 70.7236 132.568 70.4252 132.293C70.1267 132.019 69.9391 131.645 69.8976 131.241C69.8762 131.051 69.8956 130.859 69.9545 130.677C70.0135 130.496 70.1106 130.329 70.2394 130.188C70.3682 130.046 70.5257 129.935 70.7013 129.859C70.8769 129.784 71.0666 129.747 71.2576 129.751H88.4876C88.8937 129.757 89.2835 129.912 89.5824 130.187C89.8813 130.462 90.0683 130.837 90.1076 131.241C90.1274 131.431 90.1068 131.622 90.0472 131.803C89.9877 131.984 89.8905 132.151 89.762 132.291C89.6335 132.432 89.4767 132.544 89.3019 132.62C89.127 132.696 88.9382 132.734 88.7476 132.731Z" fill="white"/>
<path d="M69.7176 89.4612H52.7976C51.6188 89.4403 50.4885 88.9882 49.6206 88.1903C48.7527 87.3924 48.2073 86.304 48.0876 85.1312L46.6076 68.2112C46.5467 67.637 46.6083 67.0564 46.7885 66.5078C46.9686 65.9593 47.2631 65.4552 47.6525 65.0289C48.042 64.6026 48.5175 64.2638 49.0475 64.0349C49.5776 63.806 50.1503 63.6923 50.7276 63.7012H67.6376C68.8175 63.7217 69.949 64.1735 70.8186 64.9712C71.6882 65.769 72.2356 66.8574 72.3576 68.0312L73.8376 84.9512C73.8938 85.5274 73.8285 86.1091 73.6459 86.6586C73.4634 87.2081 73.1675 87.7131 72.7776 88.1412C72.3888 88.5637 71.9154 88.8995 71.3881 89.127C70.8609 89.3544 70.2917 89.4683 69.7176 89.4612ZM50.7176 65.7312C50.4195 65.7128 50.121 65.7614 49.844 65.8735C49.5671 65.9855 49.3189 66.1582 49.1174 66.3788C48.916 66.5994 48.7666 66.8624 48.6801 67.1483C48.5936 67.4342 48.5722 67.7359 48.6176 68.0312L50.0976 84.9512C50.1659 85.6217 50.4771 86.2441 50.9726 86.7009C51.4682 87.1578 52.1138 87.4175 52.7876 87.4312H69.7076C70.0011 87.4382 70.2927 87.383 70.5633 87.2692C70.8338 87.1555 71.0773 86.9857 71.2776 86.7712C71.4753 86.5498 71.6246 86.2896 71.7159 86.0072C71.8072 85.7247 71.8384 85.4264 71.8076 85.1312L70.3276 68.2112C70.2592 67.5389 69.9465 66.9152 69.4489 66.4581C68.9512 66.001 68.3032 65.7424 67.6276 65.7312H50.7176Z" fill="#263238"/>
<g opacity="0.5">
<path d="M69.7176 89.4612H52.7976C51.6188 89.4403 50.4885 88.9882 49.6206 88.1903C48.7527 87.3924 48.2073 86.304 48.0876 85.1312L46.6076 68.2112C46.5467 67.637 46.6083 67.0564 46.7885 66.5078C46.9686 65.9593 47.2631 65.4552 47.6525 65.0289C48.042 64.6026 48.5175 64.2638 49.0475 64.0349C49.5776 63.806 50.1503 63.6923 50.7276 63.7012H67.6376C68.8175 63.7217 69.949 64.1735 70.8186 64.9712C71.6882 65.769 72.2356 66.8574 72.3576 68.0312L73.8376 84.9512C73.8938 85.5274 73.8285 86.1091 73.6459 86.6586C73.4634 87.2081 73.1675 87.7131 72.7776 88.1412C72.3888 88.5637 71.9154 88.8995 71.3881 89.127C70.8609 89.3544 70.2917 89.4683 69.7176 89.4612ZM50.7176 65.7312C50.4195 65.7128 50.121 65.7614 49.844 65.8735C49.5671 65.9855 49.3189 66.1582 49.1174 66.3788C48.916 66.5994 48.7666 66.8624 48.6801 67.1483C48.5936 67.4342 48.5722 67.7359 48.6176 68.0312L50.0976 84.9512C50.1659 85.6217 50.4771 86.2441 50.9726 86.7009C51.4682 87.1578 52.1138 87.4175 52.7876 87.4312H69.7076C70.0011 87.4382 70.2927 87.383 70.5633 87.2692C70.8338 87.1555 71.0773 86.9857 71.2776 86.7712C71.4753 86.5498 71.6246 86.2896 71.7159 86.0072C71.8072 85.7247 71.8384 85.4264 71.8076 85.1312L70.3276 68.2112C70.2592 67.5389 69.9465 66.9152 69.4489 66.4581C68.9512 66.001 68.3032 65.7424 67.6276 65.7312H50.7176Z" fill="white"/>
</g>
<path d="M56.7076 83.6812L43.7976 71.8012C43.5812 71.6036 43.406 71.3651 43.2822 71.0994C43.1584 70.8337 43.0884 70.5462 43.0764 70.2533C43.0643 69.9605 43.1103 69.6681 43.2118 69.3932C43.3132 69.1182 43.4682 68.866 43.6676 68.6512C44.0678 68.2195 44.6226 67.9635 45.2108 67.9391C45.799 67.9148 46.3731 68.124 46.8076 68.5212L56.4376 77.3712L75.0576 56.8812C75.4554 56.4436 76.0108 56.182 76.6015 56.1539C77.1923 56.1258 77.77 56.3334 78.2076 56.7312C78.6438 57.1304 78.9036 57.6865 78.9298 58.2772C78.9561 58.868 78.7466 59.4449 78.3476 59.8812L56.7076 83.6812Z" fill="#12C2E9"/>
<g opacity="0.2">
<path d="M56.7076 83.6812L43.7976 71.8012C43.5812 71.6036 43.406 71.3651 43.2822 71.0994C43.1584 70.8337 43.0884 70.5462 43.0764 70.2533C43.0643 69.9605 43.1103 69.6681 43.2118 69.3932C43.3132 69.1182 43.4682 68.866 43.6676 68.6512C44.0678 68.2195 44.6226 67.9635 45.2108 67.9391C45.799 67.9148 46.3731 68.124 46.8076 68.5212L56.4376 77.3712L75.0576 56.8812C75.4554 56.4436 76.0108 56.182 76.6015 56.1539C77.1923 56.1258 77.77 56.3334 78.2076 56.7312C78.6438 57.1304 78.9036 57.6865 78.9298 58.2772C78.9561 58.868 78.7466 59.4449 78.3476 59.8812L56.7076 83.6812Z" fill="black"/>
</g>
<path d="M11.6476 206.471H5.3776C4.78579 206.461 4.19851 206.576 3.65482 206.81C3.11112 207.044 2.62347 207.391 2.22428 207.828C1.82508 208.265 1.5235 208.782 1.33959 209.345C1.15567 209.908 1.09363 210.503 1.1576 211.091L8.1576 291.031C8.28414 292.279 8.86225 293.437 9.78312 294.288C10.704 295.139 11.9041 295.624 13.1576 295.651H19.4576L11.6476 206.471Z" fill="#12C2E9"/>
<path opacity="0.2" d="M11.6476 206.471H5.3776C4.78579 206.461 4.19851 206.576 3.65482 206.81C3.11112 207.044 2.62347 207.391 2.22428 207.828C1.82508 208.265 1.5235 208.782 1.33959 209.345C1.15567 209.908 1.09363 210.503 1.1576 211.091L8.1576 291.031C8.28414 292.279 8.86225 293.437 9.78312 294.288C10.704 295.139 11.9041 295.624 13.1576 295.651H19.4576L11.6476 206.471Z" fill="white"/>
<path d="M113.688 295.681H15.9076C14.6541 295.654 13.454 295.169 12.5331 294.318C11.6123 293.467 11.0341 292.309 10.9076 291.061L3.9076 211.121C3.84363 210.533 3.90567 209.938 4.08959 209.375C4.2735 208.812 4.57508 208.295 4.97428 207.858C5.37347 207.421 5.86112 207.074 6.40482 206.84C6.94851 206.606 7.53579 206.491 8.1276 206.501H105.908C107.161 206.529 108.361 207.014 109.282 207.865C110.203 208.716 110.781 209.874 110.908 211.121L117.908 291.061C117.973 291.65 117.912 292.246 117.729 292.809C117.546 293.373 117.244 293.89 116.845 294.328C116.445 294.765 115.957 295.112 115.412 295.346C114.868 295.579 114.28 295.694 113.688 295.681Z" fill="#12C2E9"/>
<path opacity="0.5" d="M113.688 295.681H15.9076C14.6541 295.654 13.454 295.169 12.5331 294.318C11.6123 293.467 11.0341 292.309 10.9076 291.061L3.9076 211.121C3.84363 210.533 3.90567 209.938 4.08959 209.375C4.2735 208.812 4.57508 208.295 4.97428 207.858C5.37347 207.421 5.86112 207.074 6.40482 206.84C6.94851 206.606 7.53579 206.491 8.1276 206.501H105.908C107.161 206.529 108.361 207.014 109.282 207.865C110.203 208.716 110.781 209.874 110.908 211.121L117.908 291.061C117.973 291.65 117.912 292.246 117.729 292.809C117.546 293.373 117.244 293.89 116.845 294.328C116.445 294.765 115.957 295.112 115.412 295.346C114.868 295.579 114.28 295.694 113.688 295.681Z" fill="white"/>
<path d="M71.0576 289.021H178.058V291.181C178.058 292.773 177.425 294.299 176.3 295.424C175.175 296.549 173.649 297.181 172.058 297.181H71.0576V289.031V289.021Z" fill="#12C2E9"/>
<path opacity="0.2" d="M71.0576 289.021H178.058V291.181C178.058 292.773 177.425 294.299 176.3 295.424C175.175 296.549 173.649 297.181 172.058 297.181H71.0576V289.031V289.021Z" fill="white"/>
<path opacity="0.4" d="M133.398 293.102H124.848C123.767 293.099 122.732 292.668 121.969 291.903C121.206 291.138 120.778 290.102 120.778 289.021H137.478C137.478 290.104 137.048 291.141 136.283 291.906C135.517 292.672 134.48 293.102 133.398 293.102Z" fill="white"/>
<path d="M111.748 282.141L105.598 211.821H9.32761L15.4776 282.141H111.748Z" fill="white"/>
<path d="M61.7276 209.191C61.7447 209.342 61.7293 209.495 61.6826 209.64C61.6359 209.785 61.5589 209.918 61.4567 210.031C61.3545 210.143 61.2295 210.233 61.09 210.293C60.9504 210.354 60.7996 210.384 60.6476 210.381C60.323 210.376 60.0117 210.252 59.7722 210.033C59.5327 209.813 59.3817 209.514 59.3476 209.191C59.3304 209.039 59.346 208.885 59.3933 208.74C59.4406 208.595 59.5185 208.461 59.6218 208.348C59.7251 208.235 59.8513 208.146 59.9921 208.086C60.1328 208.026 60.2847 207.997 60.4376 208.001C60.7618 208.005 61.0731 208.129 61.3113 208.348C61.5496 208.568 61.6979 208.869 61.7276 209.191Z" fill="#263238"/>
<path d="M11.2076 289.021H78.2876V291.181C78.2876 292.773 77.6555 294.299 76.5303 295.424C75.405 296.549 73.8789 297.181 72.2876 297.181H17.2076C15.6163 297.181 14.0902 296.549 12.965 295.424C11.8397 294.299 11.2076 292.773 11.2076 291.181V289.021Z" fill="#12C2E9"/>
<path opacity="0.4" d="M21.6876 293.861H17.0576C16.7924 293.861 16.538 293.756 16.3505 293.568C16.163 293.381 16.0576 293.127 16.0576 292.861C16.0576 292.596 16.163 292.342 16.3505 292.154C16.538 291.967 16.7924 291.861 17.0576 291.861H21.7076C21.9728 291.861 22.2272 291.967 22.4147 292.154C22.6022 292.342 22.7076 292.596 22.7076 292.861C22.7076 292.994 22.6811 293.126 22.6296 293.249C22.5781 293.371 22.5027 293.482 22.4077 293.576C22.3127 293.669 22.2001 293.742 22.0764 293.791C21.9528 293.84 21.8206 293.864 21.6876 293.861Z" fill="white"/>
<path opacity="0.4" d="M31.6876 293.861H27.0576C26.7924 293.861 26.538 293.756 26.3505 293.568C26.163 293.381 26.0576 293.127 26.0576 292.861C26.0576 292.596 26.163 292.342 26.3505 292.154C26.538 291.967 26.7924 291.861 27.0576 291.861H31.7076C31.9728 291.861 32.2272 291.967 32.4147 292.154C32.6022 292.342 32.7076 292.596 32.7076 292.861C32.7076 292.994 32.6811 293.126 32.6296 293.249C32.5781 293.371 32.5027 293.482 32.4077 293.576C32.3127 293.669 32.2001 293.742 32.0764 293.791C31.9528 293.84 31.8206 293.864 31.6876 293.861Z" fill="white"/>
<path d="M30.8976 222.951H14.6576L14.1076 216.641H30.3476L30.8976 222.951Z" fill="#263238"/>
<path d="M65.9076 218.931H55.7376L55.5376 216.641H65.7076L65.9076 218.931Z" fill="#263238"/>
<path d="M78.1376 218.931H67.9676L67.7676 216.641H77.9376L78.1376 218.931Z" fill="#263238"/>
<path d="M90.3676 218.931H80.1976L79.9976 216.641H90.1676L90.3676 218.931Z" fill="#263238"/>
<path d="M102.598 218.931H92.4276L92.2276 216.641H102.398L102.598 218.931Z" fill="#263238"/>
<path d="M104.448 240.151H16.1676L14.9576 226.391H103.248L104.448 240.151Z" fill="#263238"/>
<path d="M73.3576 269.191H18.7076L16.3776 242.631H71.0376L73.3576 269.191Z" fill="#263238"/>
<path d="M58.2576 274.541H20.4176C20.0774 274.54 19.7498 274.413 19.4984 274.184C19.247 273.955 19.0899 273.64 19.0576 273.301C19.0406 273.144 19.0573 272.984 19.1065 272.833C19.1558 272.683 19.2365 272.544 19.3433 272.427C19.4501 272.31 19.5807 272.216 19.7262 272.153C19.8718 272.09 20.029 272.059 20.1876 272.061H58.0576C58.3948 272.069 58.7176 272.199 58.966 272.427C59.2143 272.655 59.3713 272.966 59.4076 273.301C59.4249 273.461 59.4077 273.622 59.3573 273.774C59.3069 273.926 59.2243 274.066 59.1153 274.184C59.0063 274.301 58.8733 274.394 58.7253 274.456C58.5774 274.517 58.4179 274.547 58.2576 274.541Z" fill="#263238"/>
<path d="M54.5876 278.561H20.7676C20.4298 278.556 20.1058 278.426 19.857 278.198C19.6082 277.969 19.4518 277.657 19.4176 277.321C19.4007 277.163 19.4174 277.003 19.4666 276.852C19.5157 276.701 19.5963 276.561 19.703 276.443C19.8096 276.326 19.94 276.231 20.0855 276.167C20.2311 276.103 20.3885 276.07 20.5476 276.071H54.3776C54.7163 276.079 55.0404 276.211 55.289 276.441C55.5376 276.671 55.6936 276.984 55.7276 277.321C55.7447 277.48 55.7278 277.64 55.678 277.792C55.6281 277.943 55.5465 278.082 55.4386 278.2C55.3307 278.317 55.1989 278.41 55.0522 278.472C54.9054 278.535 54.747 278.565 54.5876 278.561Z" fill="#263238"/>
<path d="M102.458 259.681H80.2676C79.9287 259.676 79.6034 259.547 79.353 259.319C79.1025 259.09 78.9441 258.778 78.9076 258.441C78.8906 258.282 78.9075 258.121 78.9573 257.97C79.0071 257.818 79.0885 257.678 79.1963 257.56C79.304 257.442 79.4356 257.348 79.5824 257.284C79.7291 257.221 79.8877 257.189 80.0476 257.191H102.238C102.577 257.197 102.902 257.328 103.151 257.558C103.4 257.789 103.556 258.103 103.588 258.441C103.606 258.599 103.591 258.759 103.542 258.911C103.494 259.062 103.413 259.202 103.306 259.319C103.199 259.437 103.067 259.53 102.921 259.592C102.775 259.655 102.617 259.685 102.458 259.681Z" fill="#263238"/>
<path d="M98.7976 263.681H80.6176C80.2792 263.678 79.9539 263.549 79.7047 263.32C79.4554 263.091 79.2997 262.778 79.2676 262.441C79.2489 262.283 79.2644 262.123 79.3131 261.972C79.3617 261.82 79.4423 261.681 79.5495 261.563C79.6567 261.446 79.7879 261.353 79.9342 261.29C80.0805 261.228 80.2386 261.197 80.3976 261.201H98.5776C98.9161 261.205 99.2413 261.333 99.4905 261.562C99.7398 261.791 99.8955 262.104 99.9276 262.441C99.9463 262.599 99.9308 262.759 99.8821 262.911C99.8335 263.062 99.7529 263.202 99.6457 263.319C99.5386 263.437 99.4074 263.53 99.261 263.593C99.1147 263.655 98.9567 263.685 98.7976 263.681Z" fill="#263238"/>
<path d="M104.188 254.671H78.2076L77.1476 242.631H103.138L104.188 254.671Z" fill="#263238"/>
<path d="M106.308 278.851H80.3176L79.2676 266.811H105.258L106.308 278.851Z" fill="#263238"/>
<g opacity="0.9">
<path d="M30.8976 222.951H14.6576L14.1076 216.641H30.3476L30.8976 222.951Z" fill="white"/>
<path d="M65.9076 218.931H55.7376L55.5376 216.641H65.7076L65.9076 218.931Z" fill="white"/>
<path d="M78.1376 218.931H67.9676L67.7676 216.641H77.9376L78.1376 218.931Z" fill="white"/>
<path d="M90.3676 218.931H80.1976L79.9976 216.641H90.1676L90.3676 218.931Z" fill="white"/>
<path d="M102.598 218.931H92.4276L92.2276 216.641H102.398L102.598 218.931Z" fill="white"/>
<path d="M104.448 240.151H16.1676L14.9576 226.391H103.248L104.448 240.151Z" fill="white"/>
<path d="M73.3576 269.191H18.7076L16.3776 242.631H71.0376L73.3576 269.191Z" fill="white"/>
<path d="M58.2576 274.541H20.4176C20.0774 274.54 19.7498 274.413 19.4984 274.184C19.247 273.955 19.0899 273.64 19.0576 273.301C19.0406 273.144 19.0573 272.984 19.1065 272.833C19.1558 272.683 19.2365 272.544 19.3433 272.427C19.4501 272.31 19.5807 272.216 19.7262 272.153C19.8718 272.09 20.029 272.059 20.1876 272.061H58.0576C58.3948 272.069 58.7176 272.199 58.966 272.427C59.2143 272.655 59.3713 272.966 59.4076 273.301C59.4249 273.461 59.4077 273.622 59.3573 273.774C59.3069 273.926 59.2243 274.066 59.1153 274.184C59.0063 274.301 58.8733 274.394 58.7253 274.456C58.5774 274.517 58.4179 274.547 58.2576 274.541Z" fill="white"/>
<path d="M54.5876 278.561H20.7676C20.4298 278.556 20.1058 278.426 19.857 278.198C19.6082 277.969 19.4518 277.657 19.4176 277.321C19.4007 277.163 19.4174 277.003 19.4666 276.852C19.5157 276.701 19.5963 276.561 19.703 276.443C19.8096 276.326 19.94 276.231 20.0855 276.167C20.2311 276.103 20.3885 276.07 20.5476 276.071H54.3776C54.7163 276.079 55.0404 276.211 55.289 276.441C55.5376 276.671 55.6936 276.984 55.7276 277.321C55.7447 277.48 55.7278 277.64 55.678 277.792C55.6281 277.943 55.5465 278.082 55.4386 278.2C55.3307 278.317 55.1989 278.41 55.0522 278.472C54.9054 278.535 54.747 278.565 54.5876 278.561Z" fill="white"/>
<path d="M102.458 259.681H80.2676C79.9287 259.676 79.6034 259.547 79.353 259.319C79.1025 259.09 78.9441 258.778 78.9076 258.441C78.8906 258.282 78.9075 258.121 78.9573 257.97C79.0071 257.818 79.0885 257.678 79.1963 257.56C79.304 257.442 79.4356 257.348 79.5824 257.284C79.7291 257.221 79.8877 257.189 80.0476 257.191H102.238C102.577 257.197 102.902 257.328 103.151 257.558C103.4 257.789 103.556 258.103 103.588 258.441C103.606 258.599 103.591 258.759 103.542 258.911C103.494 259.062 103.413 259.202 103.306 259.319C103.199 259.437 103.067 259.53 102.921 259.592C102.775 259.655 102.617 259.685 102.458 259.681Z" fill="white"/>
<path d="M98.7976 263.681H80.6176C80.2792 263.678 79.9539 263.549 79.7047 263.32C79.4554 263.091 79.2997 262.778 79.2676 262.441C79.2489 262.283 79.2644 262.123 79.3131 261.972C79.3617 261.82 79.4423 261.681 79.5495 261.563C79.6567 261.446 79.7879 261.353 79.9342 261.29C80.0805 261.228 80.2386 261.197 80.3976 261.201H98.5776C98.9161 261.205 99.2413 261.333 99.4905 261.562C99.7398 261.791 99.8955 262.104 99.9276 262.441C99.9463 262.599 99.9308 262.759 99.8821 262.911C99.8335 263.062 99.7529 263.202 99.6457 263.319C99.5386 263.437 99.4074 263.53 99.261 263.593C99.1147 263.655 98.9567 263.685 98.7976 263.681Z" fill="white"/>
<path d="M104.188 254.671H78.2076L77.1476 242.631H103.138L104.188 254.671Z" fill="white"/>
<path d="M106.308 278.851H80.3176L79.2676 266.811H105.258L106.308 278.851Z" fill="white"/>
</g>
<path d="M75.5576 258.771H56.7576C55.4489 258.746 54.1945 258.244 53.231 257.357C52.2676 256.471 51.6617 255.263 51.5276 253.961L49.8776 235.161C49.8127 234.524 49.8832 233.881 50.0847 233.273C50.2861 232.665 50.6138 232.107 51.0464 231.634C51.4789 231.162 52.0065 230.787 52.5944 230.533C53.1823 230.279 53.8173 230.152 54.4576 230.161H73.2576C74.5663 230.186 75.8207 230.689 76.7842 231.575C77.7476 232.461 78.3535 233.669 78.4876 234.971L80.1376 253.771C80.2025 254.408 80.132 255.052 79.9305 255.66C79.7291 256.268 79.4013 256.826 78.9688 257.298C78.5362 257.771 78.0087 258.146 77.4208 258.4C76.8329 258.654 76.1979 258.78 75.5576 258.771ZM54.4576 232.401C54.1306 232.397 53.8064 232.461 53.5052 232.588C53.204 232.716 52.9325 232.904 52.7076 233.141C52.4873 233.386 52.3216 233.675 52.2216 233.989C52.1216 234.303 52.0895 234.634 52.1276 234.961L53.7676 253.761C53.8433 254.509 54.1905 255.202 54.7434 255.711C55.2963 256.22 56.0165 256.508 56.7676 256.521H75.5676C75.8966 256.531 76.2238 256.469 76.5269 256.341C76.83 256.212 77.1019 256.02 77.324 255.777C77.546 255.534 77.7131 255.246 77.8139 254.933C77.9146 254.62 77.9466 254.288 77.9076 253.961L76.2576 235.161C76.1819 234.414 75.8347 233.72 75.2818 233.212C74.7289 232.703 74.0087 232.415 73.2576 232.401H54.4576Z" fill="#263238"/>
<g opacity="0.5">
<path d="M75.5576 258.771H56.7576C55.4489 258.746 54.1945 258.244 53.231 257.357C52.2676 256.471 51.6617 255.263 51.5276 253.961L49.8776 235.161C49.8127 234.524 49.8832 233.881 50.0847 233.273C50.2861 232.665 50.6138 232.107 51.0464 231.634C51.4789 231.162 52.0065 230.787 52.5944 230.533C53.1823 230.279 53.8173 230.152 54.4576 230.161H73.2576C74.5663 230.186 75.8207 230.689 76.7842 231.575C77.7476 232.461 78.3535 233.669 78.4876 234.971L80.1376 253.771C80.2025 254.408 80.132 255.052 79.9305 255.66C79.7291 256.268 79.4013 256.826 78.9688 257.298C78.5362 257.771 78.0087 258.146 77.4208 258.4C76.8329 258.654 76.1979 258.78 75.5576 258.771ZM54.4576 232.401C54.1306 232.397 53.8064 232.461 53.5052 232.588C53.204 232.716 52.9325 232.904 52.7076 233.141C52.4873 233.386 52.3216 233.675 52.2216 233.989C52.1216 234.303 52.0895 234.634 52.1276 234.961L53.7676 253.761C53.8433 254.509 54.1905 255.202 54.7434 255.711C55.2963 256.22 56.0165 256.508 56.7676 256.521H75.5676C75.8966 256.531 76.2238 256.469 76.5269 256.341C76.83 256.212 77.1019 256.02 77.324 255.777C77.546 255.534 77.7131 255.246 77.8139 254.933C77.9146 254.62 77.9466 254.288 77.9076 253.961L76.2576 235.161C76.1819 234.414 75.8347 233.72 75.2818 233.212C74.7289 232.703 74.0087 232.415 73.2576 232.401H54.4576Z" fill="white"/>
</g>
<path d="M61.1076 252.291L46.7576 239.101C46.2766 238.655 45.9911 238.037 45.963 237.382C45.9349 236.727 46.1666 236.087 46.6076 235.601C46.8269 235.362 47.0911 235.169 47.3852 235.032C47.6793 234.895 47.9975 234.817 48.3215 234.803C48.6456 234.79 48.9693 234.84 49.274 234.951C49.5787 235.062 49.8586 235.232 50.0976 235.451L60.7976 245.291L81.5176 222.571C81.9609 222.087 82.5783 221.797 83.2345 221.767C83.8907 221.737 84.532 221.969 85.0176 222.411C85.5023 222.855 85.7914 223.472 85.8214 224.128C85.8514 224.784 85.6199 225.426 85.1776 225.911L61.1076 252.291Z" fill="#12C2E9"/>
<g opacity="0.2">
<path d="M61.1076 252.291L46.7576 239.101C46.2766 238.655 45.9911 238.037 45.963 237.382C45.9349 236.727 46.1666 236.087 46.6076 235.601C46.8269 235.362 47.0911 235.169 47.3852 235.032C47.6793 234.895 47.9975 234.817 48.3215 234.803C48.6456 234.79 48.9693 234.84 49.274 234.951C49.5787 235.062 49.8586 235.232 50.0976 235.451L60.7976 245.291L81.5176 222.571C81.9609 222.087 82.5783 221.797 83.2345 221.767C83.8907 221.737 84.532 221.969 85.0176 222.411C85.5023 222.855 85.7914 223.472 85.8214 224.128C85.8514 224.784 85.6199 225.426 85.1776 225.911L61.1076 252.291Z" fill="black"/>
</g>
<path d="M303.698 218.782H315.558C318.564 218.777 321.459 217.644 323.67 215.607C325.881 213.57 327.247 210.777 327.498 207.782L329.658 180.422L325.158 180.062L322.998 207.422C322.842 209.29 321.992 211.032 320.615 212.304C319.237 213.576 317.433 214.285 315.558 214.292H303.698V218.782Z" fill="#263238"/>
<path opacity="0.3" d="M303.698 218.782H315.558C318.564 218.777 321.459 217.644 323.67 215.607C325.881 213.57 327.247 210.777 327.498 207.782L329.658 180.422L325.158 180.062L322.998 207.422C322.842 209.29 321.992 211.032 320.615 212.304C319.237 213.576 317.433 214.285 315.558 214.292H303.698V218.782Z" fill="white"/>
<path opacity="0.2" d="M320.178 212.681L319.478 215.891C319.259 216.841 318.836 217.732 318.238 218.501C317.359 218.71 316.46 218.817 315.558 218.821H303.698V214.301H315.558C317.237 214.3 318.866 213.729 320.178 212.681Z" fill="black"/>
<path d="M309.688 183.311C308.33 183.172 307.082 182.503 306.215 181.449C305.348 180.394 304.932 179.041 305.058 177.681L308.648 142.681C308.716 142.004 308.918 141.348 309.24 140.748C309.563 140.149 310.001 139.62 310.528 139.19C311.056 138.76 311.663 138.438 312.315 138.243C312.967 138.047 313.651 137.982 314.328 138.051H348.628C349.079 138.096 349.518 138.23 349.918 138.445C350.317 138.661 350.671 138.953 350.957 139.305C351.243 139.657 351.457 140.063 351.586 140.498C351.715 140.934 351.756 141.39 351.708 141.841L347.778 180.291C347.684 181.204 347.233 182.041 346.522 182.621C345.811 183.2 344.9 183.474 343.988 183.382L309.688 183.311Z" fill="#12C2E9"/>
<path opacity="0.3" d="M309.688 183.311C308.33 183.172 307.082 182.503 306.215 181.449C305.348 180.394 304.932 179.041 305.058 177.681L308.648 142.681C308.716 142.004 308.918 141.348 309.24 140.748C309.563 140.149 310.001 139.62 310.528 139.19C311.056 138.76 311.663 138.438 312.315 138.243C312.967 138.047 313.651 137.982 314.328 138.051H348.628C349.079 138.096 349.518 138.23 349.918 138.445C350.317 138.661 350.671 138.953 350.957 139.305C351.243 139.657 351.457 140.063 351.586 140.498C351.715 140.934 351.756 141.39 351.708 141.841L347.778 180.291C347.684 181.204 347.233 182.041 346.522 182.621C345.811 183.2 344.9 183.474 343.988 183.382L309.688 183.311Z" fill="black"/>
<path d="M347.778 180.221L351.718 141.771C351.81 140.859 351.536 139.948 350.957 139.237C350.377 138.526 349.54 138.075 348.628 137.981C347.951 137.912 347.267 137.977 346.615 138.172C345.963 138.368 345.356 138.69 344.828 139.12C344.301 139.549 343.863 140.079 343.54 140.678C343.218 141.277 343.016 141.934 342.948 142.611L339.358 177.611C339.288 178.288 339.353 178.972 339.549 179.624C339.744 180.276 340.066 180.883 340.496 181.411C340.926 181.938 341.455 182.376 342.055 182.699C342.654 183.021 343.311 183.223 343.988 183.291C344.897 183.384 345.805 183.113 346.516 182.538C347.226 181.963 347.679 181.13 347.778 180.221Z" fill="#12C2E9"/>
<path d="M308.988 285.081L308.678 284.152C308.488 283.569 308.118 283.062 307.622 282.703C307.127 282.344 306.53 282.151 305.918 282.152H273.848C273.185 282.154 272.542 282.382 272.026 282.798C271.51 283.215 271.151 283.794 271.008 284.442L270.928 284.801C270.793 285.43 270.446 285.994 269.945 286.398C269.445 286.802 268.821 287.022 268.178 287.021C267.755 287.023 267.337 286.928 266.956 286.746C266.574 286.564 266.239 286.299 265.974 285.969C265.709 285.64 265.521 285.255 265.425 284.844C265.329 284.432 265.326 284.004 265.418 283.592L265.498 283.222C265.919 281.32 266.975 279.619 268.493 278.399C270.011 277.179 271.9 276.513 273.848 276.511H305.918C307.72 276.509 309.476 277.075 310.938 278.128C312.4 279.182 313.491 280.671 314.058 282.382L314.368 283.312C314.506 283.736 314.543 284.187 314.474 284.628C314.405 285.068 314.233 285.487 313.972 285.849C313.711 286.21 313.367 286.505 312.97 286.709C312.573 286.913 312.134 287.02 311.688 287.021C311.09 287.026 310.507 286.84 310.021 286.492C309.536 286.143 309.174 285.649 308.988 285.081Z" fill="#263238"/>
<path opacity="0.3" d="M308.988 285.081L308.678 284.152C308.488 283.569 308.118 283.062 307.622 282.703C307.127 282.344 306.53 282.151 305.918 282.152H273.848C273.185 282.154 272.542 282.382 272.026 282.798C271.51 283.215 271.151 283.794 271.008 284.442L270.928 284.801C270.793 285.43 270.446 285.994 269.945 286.398C269.445 286.802 268.821 287.022 268.178 287.021C267.755 287.023 267.337 286.928 266.956 286.746C266.574 286.564 266.239 286.299 265.974 285.969C265.709 285.64 265.521 285.255 265.425 284.844C265.329 284.432 265.326 284.004 265.418 283.592L265.498 283.222C265.919 281.32 266.975 279.619 268.493 278.399C270.011 277.179 271.9 276.513 273.848 276.511H305.918C307.72 276.509 309.476 277.075 310.938 278.128C312.4 279.182 313.491 280.671 314.058 282.382L314.368 283.312C314.506 283.736 314.543 284.187 314.474 284.628C314.405 285.068 314.233 285.487 313.972 285.849C313.711 286.21 313.367 286.505 312.97 286.709C312.573 286.913 312.134 287.02 311.688 287.021C311.09 287.026 310.507 286.84 310.021 286.492C309.536 286.143 309.174 285.649 308.988 285.081Z" fill="white"/>
<path opacity="0.2" d="M295.098 276.511H285.178V282.151H295.098V276.511Z" fill="black"/>
<path d="M290.138 286.382C290.886 286.382 291.603 286.084 292.132 285.556C292.661 285.027 292.958 284.309 292.958 283.562V208.562H287.318V283.562C287.318 284.309 287.615 285.027 288.144 285.556C288.672 286.084 289.39 286.382 290.138 286.382Z" fill="#263238"/>
<path opacity="0.3" d="M290.138 286.382C290.886 286.382 291.603 286.084 292.132 285.556C292.661 285.027 292.958 284.309 292.958 283.562V208.562H287.318V283.562C287.318 284.309 287.615 285.027 288.144 285.556C288.672 286.084 289.39 286.382 290.138 286.382Z" fill="white"/>
<path d="M286.188 291.502C286.188 292.283 286.419 293.046 286.853 293.696C287.287 294.346 287.904 294.852 288.626 295.151C289.348 295.45 290.142 295.528 290.908 295.376C291.674 295.223 292.378 294.847 292.931 294.295C293.483 293.742 293.859 293.038 294.012 292.272C294.164 291.506 294.086 290.712 293.787 289.99C293.488 289.268 292.982 288.651 292.332 288.217C291.683 287.783 290.919 287.552 290.138 287.552C289.094 287.564 288.097 287.985 287.359 288.723C286.621 289.461 286.201 290.458 286.188 291.502Z" fill="#263238"/>
<path d="M310.538 291.502C310.538 292.283 310.769 293.046 311.203 293.696C311.637 294.346 312.254 294.852 312.976 295.151C313.698 295.45 314.492 295.528 315.258 295.376C316.024 295.223 316.728 294.847 317.281 294.295C317.833 293.742 318.209 293.038 318.362 292.272C318.514 291.506 318.436 290.712 318.137 289.99C317.838 289.268 317.332 288.651 316.682 288.217C316.033 287.783 315.269 287.552 314.488 287.552C313.444 287.564 312.447 287.985 311.709 288.723C310.971 289.461 310.551 290.458 310.538 291.502Z" fill="#263238"/>
<path d="M261.408 291.502C261.408 292.283 261.64 293.047 262.074 293.697C262.508 294.347 263.126 294.853 263.848 295.152C264.571 295.45 265.365 295.528 266.132 295.375C266.898 295.222 267.602 294.844 268.154 294.291C268.706 293.738 269.082 293.033 269.233 292.266C269.384 291.499 269.305 290.705 269.004 289.983C268.704 289.261 268.196 288.645 267.545 288.212C266.894 287.78 266.129 287.55 265.348 287.552C264.829 287.552 264.316 287.654 263.838 287.852C263.359 288.051 262.924 288.342 262.558 288.709C262.192 289.076 261.902 289.511 261.705 289.991C261.507 290.47 261.406 290.983 261.408 291.502Z" fill="#263238"/>
<path opacity="0.2" d="M292.958 212.961H287.318V226.301H292.958V212.961Z" fill="black"/>
<path d="M271.838 219.381H309.058C310.573 219.382 312.042 218.865 313.223 217.915C314.403 216.966 315.224 215.641 315.548 214.161L316.658 209.161H263.658L265.528 214.851C265.973 216.172 266.822 217.319 267.954 218.132C269.086 218.944 270.444 219.381 271.838 219.381Z" fill="#263238"/>
<path opacity="0.3" d="M271.838 219.381H309.058C310.573 219.382 312.042 218.865 313.223 217.915C314.403 216.966 315.224 215.641 315.548 214.161L316.658 209.161H263.658L265.528 214.851C265.973 216.172 266.822 217.319 267.954 218.132C269.086 218.944 270.444 219.381 271.838 219.381Z" fill="white"/>
<path d="M315.708 213.081H257.808C256.93 213.081 256.088 212.733 255.467 212.112C254.846 211.491 254.498 210.649 254.498 209.771V209.011C254.498 207.685 255.024 206.414 255.962 205.476C256.9 204.538 258.172 204.011 259.498 204.011H314.048C315.374 204.011 316.645 204.538 317.583 205.476C318.521 206.414 319.048 207.685 319.048 209.011V209.771C319.048 210.209 318.961 210.642 318.793 211.045C318.625 211.449 318.378 211.815 318.068 212.123C317.757 212.43 317.389 212.674 316.984 212.838C316.578 213.003 316.145 213.085 315.708 213.081Z" fill="#12C2E9"/>
<path opacity="0.3" d="M315.708 213.081H257.808C256.93 213.081 256.088 212.733 255.467 212.112C254.846 211.491 254.498 210.649 254.498 209.771V209.011C254.498 207.685 255.024 206.414 255.962 205.476C256.9 204.538 258.172 204.011 259.498 204.011H314.048C315.374 204.011 316.645 204.538 317.583 205.476C318.521 206.414 319.048 207.685 319.048 209.011V209.771C319.048 210.209 318.961 210.642 318.793 211.045C318.625 211.449 318.378 211.815 318.068 212.123C317.757 212.43 317.389 212.674 316.984 212.838C316.578 213.003 316.145 213.085 315.708 213.081Z" fill="black"/>
<path d="M326.988 213.081H291.648C290.77 213.081 289.928 212.733 289.307 212.112C288.686 211.491 288.338 210.649 288.338 209.771V209.011C288.338 207.685 288.864 206.413 289.802 205.476C290.74 204.538 292.012 204.011 293.338 204.011H325.338C326.664 204.011 327.935 204.538 328.873 205.476C329.811 206.413 330.338 207.685 330.338 209.011V209.771C330.338 210.209 330.251 210.643 330.082 211.047C329.913 211.452 329.666 211.818 329.354 212.126C329.042 212.434 328.673 212.677 328.267 212.841C327.86 213.005 327.426 213.087 326.988 213.081Z" fill="#12C2E9"/>
<path d="M235.038 269.112L231.708 285.162L224.618 284.202L226.078 267.562L235.038 269.112Z" fill="#FF8B7B"/>
<path d="M224.128 283.392L232.738 283.992C232.883 283.999 233.019 284.063 233.118 284.169C233.217 284.276 233.27 284.416 233.268 284.562L233.208 291.492C233.187 291.851 233.025 292.187 232.757 292.427C232.489 292.667 232.137 292.791 231.778 292.772C228.778 292.512 227.358 292.232 223.568 291.942C220.192 291.832 216.83 291.471 213.508 290.862C210.318 290.122 211.168 287.002 212.568 287.032C216.2 286.829 219.716 285.681 222.768 283.702C223.174 283.45 223.652 283.341 224.128 283.392Z" fill="#263238"/>
<path d="M219.908 284.031C219.796 283.893 219.723 283.728 219.697 283.552C219.671 283.376 219.692 283.196 219.758 283.031C219.783 282.919 219.837 282.815 219.914 282.73C219.991 282.644 220.089 282.579 220.198 282.541C221.198 282.241 223.198 283.891 223.478 284.081C223.518 284.14 223.536 284.211 223.528 284.281C223.518 284.315 223.499 284.346 223.472 284.369C223.446 284.392 223.413 284.407 223.378 284.412C222.698 284.53 222.007 284.573 221.318 284.541C220.801 284.548 220.3 284.367 219.908 284.031ZM220.308 282.901C220.254 282.921 220.206 282.953 220.168 282.994C220.13 283.036 220.102 283.087 220.088 283.141C220.043 283.249 220.027 283.366 220.041 283.482C220.055 283.597 220.099 283.708 220.168 283.801C220.508 284.181 221.508 284.291 222.898 284.121C222.048 283.481 220.818 282.741 220.308 282.901Z" fill="#263238"/>
<path d="M223.238 284.371C222.518 283.861 221.488 282.161 221.708 281.321C221.752 281.174 221.843 281.045 221.968 280.954C222.093 280.864 222.244 280.817 222.398 280.821C222.537 280.817 222.675 280.841 222.804 280.892C222.933 280.944 223.05 281.022 223.148 281.121C223.858 281.941 223.528 284.181 223.528 284.261C223.509 284.317 223.47 284.364 223.418 284.391C223.407 284.396 223.395 284.398 223.383 284.398C223.371 284.398 223.359 284.396 223.348 284.391C223.329 284.396 223.309 284.396 223.291 284.393C223.272 284.389 223.254 284.382 223.238 284.371ZM222.418 281.221C222.158 281.221 222.058 281.351 222.058 281.461C222.127 282.387 222.532 283.255 223.198 283.901C223.358 283.058 223.242 282.184 222.868 281.411C222.822 281.356 222.766 281.311 222.702 281.278C222.639 281.245 222.569 281.226 222.498 281.221H222.418Z" fill="#263238"/>
<path opacity="0.2" d="M226.078 267.562L235.038 269.112L233.358 277.222L225.308 276.382L226.078 267.562Z" fill="black"/>
<path d="M294.738 163.931C294.738 163.931 293.818 178.931 289.818 179.621C285.818 180.311 234.908 190.681 231.238 202.681C227.568 214.681 224.548 274.521 224.548 274.521L234.738 275.441C234.738 275.441 248.738 224.681 248.068 211.181C248.068 211.181 292.568 211.181 307.408 203.011C322.248 194.841 315.108 165.691 315.108 165.691L294.738 163.931Z" fill="#263238"/>
<path opacity="0.5" d="M294.738 163.931C294.738 163.931 293.818 178.931 289.818 179.621C285.818 180.311 234.908 190.681 231.238 202.681C227.568 214.681 224.548 274.521 224.548 274.521L234.738 275.441C234.738 275.441 248.738 224.681 248.068 211.181C248.068 211.181 292.568 211.181 307.408 203.011C322.248 194.841 315.108 165.691 315.108 165.691L294.738 163.931Z" fill="white"/>
<path opacity="0.2" d="M249.328 211.191C251.198 211.191 255.008 211.111 259.878 210.911L266.278 205.911L303.778 198.352L305.198 186.281C305.198 186.281 268.278 188.852 258.378 194.352C250.958 198.522 249.558 207.131 249.328 211.191Z" fill="black"/>
<path d="M258.908 272.261L255.598 288.561L248.478 287.852L249.898 271.021L258.908 272.261Z" fill="#FF8B7B"/>
<path d="M247.858 285.751L256.428 286.691C256.499 286.694 256.569 286.711 256.634 286.741C256.699 286.771 256.757 286.814 256.804 286.868C256.852 286.921 256.888 286.983 256.911 287.051C256.934 287.119 256.943 287.19 256.938 287.261L256.628 294.201C256.604 294.56 256.44 294.896 256.17 295.134C255.9 295.372 255.547 295.493 255.188 295.471C252.188 295.101 250.818 294.761 247.008 294.321C243.645 294.098 240.303 293.633 237.008 292.931C233.898 292.071 234.818 288.981 236.208 289.061C239.508 289.251 244.208 287.581 246.558 286.061C246.946 285.821 247.402 285.713 247.858 285.751Z" fill="#263238"/>
<path d="M243.668 286.271C243.546 286.124 243.469 285.945 243.446 285.755C243.423 285.566 243.455 285.374 243.538 285.201C243.571 285.092 243.631 284.993 243.711 284.911C243.791 284.829 243.889 284.768 243.998 284.731C244.998 284.511 246.998 286.201 247.208 286.401C247.225 286.432 247.234 286.466 247.234 286.501C247.234 286.537 247.225 286.571 247.208 286.601C247.2 286.635 247.181 286.665 247.154 286.685C247.126 286.705 247.092 286.715 247.058 286.711C246.372 286.81 245.678 286.833 244.988 286.781C244.503 286.765 244.037 286.585 243.668 286.271ZM244.038 285.131C243.984 285.143 243.935 285.17 243.896 285.209C243.857 285.248 243.83 285.298 243.818 285.351C243.768 285.458 243.749 285.576 243.763 285.693C243.778 285.809 243.824 285.92 243.898 286.011C244.208 286.411 245.218 286.561 246.618 286.441C245.778 285.771 244.618 284.971 244.058 285.131H244.038Z" fill="#263238"/>
<path d="M246.958 286.681C246.228 286.181 245.258 284.431 245.518 283.611C245.563 283.462 245.658 283.333 245.787 283.246C245.917 283.158 246.072 283.118 246.228 283.131C246.367 283.126 246.505 283.154 246.631 283.211C246.758 283.268 246.87 283.354 246.958 283.461C247.648 284.301 247.208 286.541 247.218 286.611C247.21 286.64 247.196 286.666 247.177 286.689C247.158 286.711 247.134 286.729 247.108 286.741C247.098 286.746 247.088 286.748 247.078 286.748C247.067 286.748 247.057 286.746 247.048 286.741C247.029 286.739 247.012 286.732 246.996 286.721C246.981 286.711 246.967 286.697 246.958 286.681ZM246.228 283.581C245.978 283.581 245.848 283.701 245.858 283.811C245.907 284.742 246.286 285.625 246.928 286.301C247.11 285.46 247.026 284.583 246.688 283.791C246.595 283.678 246.463 283.603 246.318 283.581H246.228Z" fill="#263238"/>
<path opacity="0.2" d="M258.768 272.902L257.468 279.322L249.328 277.822L249.898 271.042L258.768 272.902Z" fill="black"/>
<path d="M310.188 116.421C302.058 115.351 308.378 112.641 308.378 112.641C313.898 111.641 314.228 107.641 313.738 103.871L323.848 96.4814C322.328 101.231 320.338 109.961 323.318 113.311C323.318 113.311 325.368 117.631 312.698 116.671L310.188 116.421Z" fill="#FF8B7B"/>
<path opacity="0.2" d="M319.728 99.4915L313.728 103.861C313.853 104.746 313.9 105.639 313.868 106.531C315.958 106.321 319.038 104.211 319.508 102.081C319.738 101.239 319.812 100.361 319.728 99.4915Z" fill="black"/>
<path d="M328.388 87.0215C326.578 94.7115 325.978 98.0215 321.388 101.522C314.478 106.822 305.458 103.452 304.938 95.5215C304.478 88.3715 307.508 76.9915 315.618 74.7815C317.341 74.2534 319.175 74.1949 320.929 74.612C322.682 75.029 324.293 75.9066 325.595 77.154C326.896 78.4015 327.841 79.9736 328.332 81.7082C328.823 83.4428 328.842 85.277 328.388 87.0215Z" fill="#FF8B7B"/>
<path d="M316.058 87.7615C315.928 88.4115 315.488 88.9015 315.058 88.8515C314.628 88.8015 314.408 88.2315 314.528 87.5815C314.648 86.9315 315.088 86.4315 315.528 86.4815C315.968 86.5315 316.158 87.1015 316.058 87.7615Z" fill="#263238"/>
<path d="M308.128 86.9315C308.008 87.5815 307.568 88.0715 307.128 88.0215C306.688 87.9715 306.468 87.4015 306.588 86.7515C306.708 86.1015 307.158 85.6115 307.588 85.6615C308.018 85.7115 308.248 86.2815 308.128 86.9315Z" fill="#263238"/>
<path d="M307.768 85.6815L306.318 85.0415C306.318 85.0415 306.878 86.4015 307.768 85.6815Z" fill="#263238"/>
<path d="M310.128 88.2615C309.267 89.6845 308.232 90.9946 307.048 92.1615C307.337 92.4378 307.685 92.6445 308.067 92.7658C308.448 92.8871 308.852 92.9198 309.248 92.8615L310.128 88.2615Z" fill="#FF5652"/>
<path d="M312.478 95.6814C312.115 95.7159 311.75 95.7159 311.388 95.6814C311.364 95.6778 311.341 95.6694 311.321 95.6568C311.3 95.6443 311.282 95.6277 311.268 95.6081C311.254 95.5885 311.244 95.5664 311.239 95.5429C311.234 95.5194 311.233 95.4951 311.238 95.4714C311.24 95.4455 311.248 95.4203 311.26 95.3974C311.273 95.3745 311.29 95.3545 311.311 95.3386C311.331 95.3226 311.355 95.3111 311.38 95.3047C311.406 95.2983 311.432 95.2972 311.458 95.3014C312.279 95.4001 313.112 95.314 313.896 95.0493C314.68 94.7846 315.394 94.348 315.988 93.7714C316.001 93.7459 316.021 93.7239 316.044 93.707C316.068 93.6902 316.095 93.6789 316.124 93.6742C316.152 93.6694 316.182 93.6713 316.209 93.6796C316.237 93.688 316.263 93.7025 316.284 93.7222C316.305 93.7419 316.322 93.7662 316.332 93.7933C316.343 93.8203 316.347 93.8494 316.344 93.8783C316.342 93.9071 316.332 93.9351 316.317 93.9599C316.302 93.9847 316.282 94.0057 316.258 94.0214C315.243 95.0189 313.898 95.6095 312.478 95.6814Z" fill="#263238"/>
<path d="M318.408 84.3314C318.304 84.3237 318.208 84.2773 318.138 84.2014C317.849 83.8323 317.473 83.5406 317.043 83.3521C316.614 83.1637 316.145 83.0844 315.678 83.1214C315.629 83.1299 315.579 83.1282 315.531 83.1164C315.482 83.1047 315.437 83.0831 315.398 83.0531C315.358 83.023 315.326 82.9852 315.301 82.9419C315.277 82.8986 315.262 82.8507 315.258 82.8014C315.251 82.6978 315.284 82.5955 315.348 82.5142C315.413 82.4329 315.505 82.3785 315.608 82.3614C316.2 82.2996 316.798 82.3882 317.347 82.6189C317.896 82.8496 318.377 83.2151 318.748 83.6814C318.809 83.7644 318.836 83.868 318.823 83.9705C318.81 84.073 318.758 84.1665 318.678 84.2314C318.603 84.2963 318.507 84.3318 318.408 84.3314Z" fill="#263238"/>
<path d="M306.518 83.0814C306.47 83.0834 306.422 83.0756 306.377 83.0584C306.333 83.0412 306.292 83.015 306.258 82.9814C306.221 82.9468 306.191 82.905 306.171 82.8585C306.151 82.8121 306.141 82.762 306.141 82.7114C306.141 82.6608 306.151 82.6107 306.171 82.5643C306.191 82.5178 306.221 82.476 306.258 82.4414C306.677 81.9791 307.198 81.6197 307.779 81.3908C308.36 81.1619 308.985 81.0697 309.608 81.1214C309.656 81.1296 309.703 81.1478 309.744 81.1748C309.786 81.2018 309.821 81.237 309.848 81.2783C309.876 81.3195 309.894 81.366 309.902 81.4147C309.911 81.4634 309.909 81.5133 309.898 81.5614C309.874 81.6639 309.812 81.7537 309.725 81.813C309.638 81.8723 309.532 81.8967 309.428 81.8814C308.935 81.849 308.442 81.9285 307.985 82.1138C307.528 82.2991 307.118 82.5855 306.788 82.9514C306.717 83.0272 306.621 83.0737 306.518 83.0814Z" fill="#263238"/>
<path d="M315.678 86.5414L314.228 85.9114C314.228 85.9114 314.778 87.2314 315.678 86.5414Z" fill="#263238"/>
<path d="M261.858 151.501H262.298C263.148 151.441 264.298 151.411 265.218 151.301C266.138 151.191 267.218 151.061 268.128 150.881C269.858 150.59 271.541 150.062 273.128 149.311C273.787 148.996 274.411 148.611 274.988 148.161C275.242 147.958 275.486 147.741 275.718 147.511C275.838 147.405 275.948 147.287 276.048 147.161L276.448 146.741L278.448 144.551L280.448 142.341C283.038 139.341 285.448 136.271 287.818 133.141C288.988 131.571 290.118 129.981 291.228 128.391C291.778 127.591 292.318 126.791 292.838 125.991C293.358 125.191 293.908 124.351 294.318 123.671L294.388 123.551C295.208 122.361 296.419 121.495 297.811 121.104C299.203 120.713 300.688 120.822 302.008 121.411C304.858 122.641 306.008 125.641 304.608 128.111C304.008 129.111 303.508 130.021 302.918 130.931C302.328 131.841 301.758 132.701 301.148 133.571C299.968 135.321 298.698 137.021 297.388 138.681C294.742 142.043 291.907 145.251 288.898 148.291C287.388 149.831 285.798 151.291 284.198 152.781C284.028 152.941 283.738 153.181 283.448 153.421C283.167 153.661 282.873 153.885 282.568 154.091C281.97 154.523 281.342 154.911 280.688 155.251C279.414 155.929 278.074 156.472 276.688 156.871C274.063 157.582 271.342 157.865 268.628 157.711C266.077 157.568 263.554 157.108 261.118 156.341C260.637 156.201 260.207 155.924 259.881 155.544C259.554 155.164 259.345 154.698 259.278 154.201C259.267 153.854 259.326 153.508 259.45 153.183C259.574 152.859 259.762 152.562 260.002 152.311C260.242 152.06 260.53 151.859 260.849 151.72C261.167 151.581 261.51 151.506 261.858 151.501Z" fill="#FF8B7B"/>
<path d="M298.058 117.021C298.058 117.021 295.748 117.021 287.058 131.921C287.058 131.921 290.628 140.641 299.918 141.091C299.878 141.091 318.058 116.021 298.058 117.021Z" fill="#263238"/>
<path opacity="0.5" d="M295.498 121.681L300.318 120.531L305.978 123.531L307.108 126.351C305.648 133.121 299.878 141.081 299.878 141.081C296.281 140.917 292.886 139.374 290.398 136.771C292.509 131.89 294.215 126.843 295.498 121.681Z" fill="black"/>
<path d="M253.128 149.981L255.768 148.691C256.269 148.451 256.816 148.318 257.372 148.301C257.928 148.284 258.482 148.383 258.998 148.591L263.808 150.591C264.715 150.932 265.524 151.49 266.164 152.218C266.804 152.945 267.255 153.818 267.478 154.761L267.708 155.891C263.498 158.291 256.908 158.181 256.908 158.181L255.028 158.331C254.296 158.45 253.547 158.28 252.938 157.859C252.329 157.438 251.906 156.797 251.758 156.071L251.368 152.831C251.329 152.232 251.477 151.636 251.793 151.125C252.108 150.615 252.575 150.215 253.128 149.981Z" fill="#FF8B7B"/>
<path d="M303.818 163.931C303.818 163.931 304.898 186.931 300.888 187.621C296.878 188.311 259.978 191.681 256.318 203.681C252.658 215.681 248.628 275.521 248.628 275.521L258.818 277.441C258.818 277.441 274.818 224.681 274.148 211.181C274.148 211.181 314.758 212.381 323.478 204.011C332.198 195.641 330.188 165.681 330.188 165.681L303.818 163.931Z" fill="#263238"/>
<path opacity="0.5" d="M303.818 163.931C303.818 163.931 304.898 186.931 300.888 187.621C296.878 188.311 259.978 191.681 256.318 203.681C252.658 215.681 248.628 275.521 248.628 275.521L258.818 277.441C258.818 277.441 274.818 224.681 274.148 211.181C274.148 211.181 314.758 212.381 323.478 204.011C332.198 195.641 330.188 165.681 330.188 165.681L303.818 163.931Z" fill="white"/>
<path d="M310.278 112.501C310.008 112.681 303.568 116.861 311.968 116.861C320.368 116.861 323.058 113.221 323.058 113.131C326.058 113.571 329.438 114.221 333.168 115.131L330.428 171.461C330.428 171.461 306.818 173.601 293.628 167.641C293.628 167.641 291.938 126.191 295.858 119.641C295.898 119.681 297.848 113.471 310.278 112.501Z" fill="#263238"/>
<path opacity="0.5" d="M332.668 125.531L331.518 147.441C326.818 131.851 326.968 123.801 326.968 123.801L328.218 120.861L332.668 125.531Z" fill="black"/>
<path d="M360.058 129.181C359.583 129.096 359.095 129.152 358.652 129.343C358.209 129.533 357.832 129.849 357.568 130.251V130.301C356.388 132.021 355.208 133.811 353.978 135.501C352.748 137.191 351.548 138.901 350.278 140.501C349.458 141.501 348.608 142.501 347.768 143.411C347.634 143.546 347.471 143.646 347.291 143.704C347.111 143.763 346.92 143.777 346.733 143.747C346.546 143.717 346.369 143.642 346.217 143.53C346.065 143.418 345.942 143.271 345.858 143.101C344.558 140.381 343.348 137.591 342.198 134.751C341.378 132.671 340.558 130.581 339.788 128.461C339.018 126.341 338.258 124.181 337.568 122.171V122.061C337.346 121.417 336.995 120.824 336.537 120.32C336.078 119.816 335.521 119.411 334.9 119.13C334.279 118.849 333.607 118.698 332.926 118.687C332.245 118.675 331.568 118.802 330.938 119.061C329.787 119.562 328.861 120.469 328.337 121.609C327.813 122.749 327.728 124.042 328.098 125.241C328.788 127.601 329.568 129.741 330.378 131.951C331.188 134.161 332.058 136.431 333.058 138.681C334.058 140.931 335.108 143.041 336.248 145.191C337.388 147.341 338.638 149.441 339.968 151.521L340.138 151.781C340.254 151.963 340.392 152.131 340.548 152.281C341.064 152.81 341.658 153.259 342.308 153.611C343.055 154.013 343.874 154.264 344.718 154.351C346.062 154.477 347.415 154.217 348.618 153.601C350.023 152.856 351.28 151.859 352.328 150.661C353.914 148.836 355.308 146.852 356.488 144.741C357.618 142.741 358.618 140.741 359.538 138.741C360.458 136.741 361.268 134.671 361.998 132.521C362.123 132.175 362.171 131.806 362.138 131.439C362.105 131.072 361.992 130.717 361.807 130.399C361.622 130.08 361.369 129.806 361.067 129.596C360.765 129.386 360.42 129.244 360.058 129.181Z" fill="#FF8B7B"/>
<path d="M346.968 135.011C342.848 139.066 337.298 141.336 331.518 141.331C331.518 141.331 321.418 117.451 330.218 114.971C338.548 112.611 346.968 135.011 346.968 135.011Z" fill="#263238"/>
<path d="M358.468 121.871L356.528 123.681C356.157 124.006 355.872 124.416 355.698 124.876C355.523 125.337 355.465 125.833 355.528 126.321L356.108 130.921C356.223 131.831 356.556 132.699 357.078 133.453C357.601 134.207 358.297 134.824 359.108 135.251L360.108 135.791C363.528 133.051 365.198 127.561 365.198 127.561L365.858 126.051C365.999 125.744 366.077 125.412 366.09 125.074C366.102 124.737 366.048 124.4 365.93 124.083C365.812 123.766 365.633 123.476 365.402 123.228C365.172 122.981 364.895 122.782 364.588 122.641L361.588 121.321C361.068 121.113 360.5 121.054 359.949 121.151C359.398 121.248 358.885 121.498 358.468 121.871Z" fill="#FF8B7B"/>
<path d="M311.478 180.681L254.908 185.981C254.519 186.043 254.168 186.251 253.927 186.562C253.685 186.874 253.571 187.265 253.608 187.657C253.645 188.05 253.83 188.413 254.125 188.674C254.421 188.934 254.804 189.073 255.198 189.061L311.768 183.751C311.969 183.732 312.165 183.674 312.344 183.579C312.523 183.484 312.681 183.355 312.811 183.199C312.94 183.043 313.037 182.863 313.096 182.67C313.156 182.476 313.177 182.273 313.158 182.071C313.139 181.87 313.08 181.674 312.985 181.495C312.891 181.316 312.761 181.158 312.605 181.028C312.449 180.899 312.27 180.802 312.076 180.743C311.883 180.683 311.679 180.662 311.478 180.681Z" fill="#12C2E9"/>
<path d="M255.948 188.071L282.058 185.611C282.17 185.6 282.278 185.562 282.374 185.502C282.469 185.441 282.548 185.358 282.606 185.261C282.663 185.163 282.697 185.054 282.704 184.941C282.712 184.828 282.692 184.715 282.648 184.611L269.288 155.491C269.11 155.099 268.814 154.772 268.441 154.557C268.067 154.342 267.636 154.249 267.208 154.291L241.058 156.681C240.946 156.695 240.839 156.733 240.745 156.795C240.651 156.856 240.572 156.939 240.515 157.035C240.458 157.132 240.424 157.241 240.416 157.353C240.408 157.465 240.425 157.577 240.468 157.681L253.828 186.811C254.002 187.219 254.301 187.561 254.682 187.787C255.063 188.014 255.506 188.113 255.948 188.071Z" fill="#12C2E9"/>
<path d="M255.058 188.161L281.168 185.681C281.28 185.669 281.388 185.632 281.484 185.571C281.579 185.51 281.659 185.428 281.717 185.331C281.775 185.234 281.81 185.125 281.819 185.012C281.828 184.899 281.81 184.786 281.768 184.681L268.398 155.551C268.218 155.161 267.921 154.836 267.548 154.621C267.176 154.406 266.746 154.312 266.318 154.351L240.158 156.811C240.045 156.823 239.937 156.86 239.842 156.921C239.746 156.982 239.667 157.064 239.609 157.162C239.552 157.259 239.518 157.369 239.511 157.482C239.504 157.594 239.523 157.707 239.568 157.811L252.938 186.931C253.114 187.335 253.415 187.673 253.796 187.894C254.177 188.115 254.619 188.209 255.058 188.161Z" fill="#12C2E9"/>
<path opacity="0.7" d="M255.058 188.161L281.168 185.681C281.28 185.669 281.388 185.632 281.484 185.571C281.579 185.51 281.659 185.428 281.717 185.331C281.775 185.234 281.81 185.125 281.819 185.012C281.828 184.899 281.81 184.786 281.768 184.681L268.398 155.551C268.218 155.161 267.921 154.836 267.548 154.621C267.176 154.406 266.746 154.312 266.318 154.351L240.158 156.811C240.045 156.823 239.937 156.86 239.842 156.921C239.746 156.982 239.667 157.064 239.609 157.162C239.552 157.259 239.518 157.369 239.511 157.482C239.504 157.594 239.523 157.707 239.568 157.811L252.938 186.931C253.114 187.335 253.415 187.673 253.796 187.894C254.177 188.115 254.619 188.209 255.058 188.161Z" fill="white"/>
<path opacity="0.7" d="M284.658 186.321C284.456 186.34 284.253 186.32 284.059 186.26C283.866 186.2 283.686 186.103 283.53 185.974C283.215 185.714 283.016 185.338 282.978 184.931C282.939 184.524 283.064 184.119 283.325 183.804C283.585 183.488 283.961 183.29 284.368 183.251L311.478 180.681C311.679 180.662 311.883 180.683 312.076 180.743C312.27 180.802 312.449 180.899 312.606 181.028C312.762 181.158 312.891 181.316 312.985 181.495C313.08 181.674 313.139 181.87 313.158 182.071C313.177 182.273 313.156 182.476 313.096 182.67C313.037 182.863 312.94 183.043 312.811 183.199C312.681 183.355 312.523 183.484 312.344 183.579C312.165 183.674 311.969 183.732 311.768 183.751L284.658 186.321Z" fill="white"/>
<path opacity="0.5" d="M289.15 184.713L291.341 184.508L291.273 183.791L289.083 183.996L289.15 184.713Z" fill="black"/>
<path opacity="0.5" d="M285.766 185.031L287.956 184.825L287.889 184.108L285.698 184.314L285.766 185.031Z" fill="black"/>
<path d="M325.988 92.8814C324.341 91.462 323.191 89.5535 322.705 87.4344C322.219 85.3152 322.424 83.0964 323.288 81.1014C321.235 80.1751 319.019 79.6685 316.768 79.6114C311.768 79.6114 306.048 80.6814 307.578 76.8514C307.578 76.8514 302.268 70.1014 311.308 69.1414C311.308 69.1414 310.848 60.6314 318.148 66.1414C318.148 66.1414 324.218 58.9314 327.238 68.7014C327.238 68.7014 336.368 63.9314 333.988 75.7014C333.988 75.7014 340.448 75.8114 336.368 83.3414C336.368 83.3414 339.748 87.9314 333.038 91.9614C333.038 91.9614 333.578 98.5114 328.688 97.3314C328.688 97.3314 323.078 105.201 322.308 101.531C321.608 98.1214 325.988 92.8814 325.988 92.8814Z" fill="#263238"/>
<path d="M328.808 94.5315C328.457 95.2022 327.971 95.7929 327.381 96.2663C326.791 96.7396 326.108 97.0853 325.378 97.2815C323.548 97.6715 322.858 95.5715 323.548 93.5315C324.178 91.6915 325.878 89.2715 327.628 89.8015C329.378 90.3315 329.798 92.7515 328.808 94.5315Z" fill="#FF8B7B"/>
<path d="M324.898 96.4814L322.998 99.9514H327.328L325.418 96.4814H324.898Z" fill="#12C2E9"/>
<path opacity="0.2" d="M324.898 96.4814L322.998 99.9514H327.328L325.418 96.4814H324.898Z" fill="black"/>
<path d="M322.998 99.9514L324.898 96.4814L326.808 99.9514H322.998Z" fill="#12C2E9"/>
<path d="M223.878 274.981L235.018 276.151L235.898 272.981L223.878 271.651V274.981Z" fill="#263238"/>
<path d="M248.068 276.152L259.118 278.032L260.188 274.932L248.278 272.832L248.068 276.152Z" fill="#263238"/>
<path d="M236.388 108.911C217.218 108.911 200.258 93.3114 198.578 74.1514C196.898 54.9914 211.138 39.3813 230.298 39.3813C249.458 39.3813 266.428 54.9814 268.108 74.1514C269.788 93.3214 255.548 108.911 236.388 108.911Z" fill="#263238"/>
<path d="M238.058 108.072C218.888 108.072 201.928 92.4815 200.248 73.3115C198.568 54.1415 212.808 38.5515 231.978 38.5515C251.148 38.5515 268.098 54.1415 269.778 73.3115C271.458 92.4815 257.228 108.072 238.058 108.072Z" fill="#12C2E9"/>
<g opacity="0.7">
<path d="M238.058 108.072C218.888 108.072 201.928 92.4815 200.248 73.3115C198.568 54.1415 212.808 38.5515 231.978 38.5515C251.148 38.5515 268.098 54.1415 269.778 73.3115C271.458 92.4815 257.228 108.072 238.058 108.072Z" fill="white"/>
</g>
<path d="M238.058 108.072C218.888 108.072 201.928 92.4815 200.248 73.3115C198.568 54.1415 212.808 38.5515 231.978 38.5515C251.148 38.5515 268.098 54.1415 269.778 73.3115C271.458 92.4815 257.228 108.072 238.058 108.072ZM232.558 45.2315C217.078 45.2315 205.558 57.8315 206.938 73.3115C208.318 88.7915 221.988 101.382 237.468 101.382C252.948 101.382 264.468 88.7915 263.088 73.3115C261.708 57.8315 248.058 45.2315 232.558 45.2315Z" fill="#12C2E9"/>
<path d="M236.938 95.3314C230.95 95.2152 225.21 92.9149 220.8 88.8633C216.389 84.8117 213.611 79.288 212.988 73.3314C212.687 70.5296 212.985 67.6959 213.862 65.0182C214.74 62.3404 216.177 59.8797 218.077 57.7994C219.978 55.7191 222.299 54.0665 224.887 52.9514C227.475 51.8363 230.27 51.2841 233.088 51.3314C239.085 51.4334 244.837 53.7276 249.259 57.7807C253.681 61.8339 256.465 67.3655 257.088 73.3314C257.389 76.1374 257.09 78.9755 256.209 81.6568C255.329 84.3382 253.888 86.8013 251.982 88.8825C250.075 90.9637 247.748 92.6151 245.154 93.7271C242.56 94.839 239.759 95.3859 236.938 95.3314ZM233.668 57.9714C231.703 57.9371 229.754 58.3214 227.95 59.0987C226.146 59.876 224.528 61.0285 223.203 62.4796C221.879 63.9307 220.879 65.6472 220.269 67.5148C219.659 69.3824 219.454 71.3584 219.668 73.3114C220.088 77.4715 222.018 81.3332 225.094 84.1657C228.17 86.9981 232.177 88.6047 236.358 88.6814C238.321 88.7156 240.269 88.3315 242.073 87.5548C243.876 86.7781 245.494 85.6265 246.818 84.1765C248.142 82.7265 249.143 81.0114 249.753 79.145C250.363 77.2785 250.569 75.3036 250.358 73.3514C249.94 69.1896 248.01 65.3254 244.934 62.4909C241.858 59.6564 237.85 58.0484 233.668 57.9714Z" fill="#12C2E9"/>
<path d="M243.708 73.3115C243.83 74.4186 243.715 75.539 243.37 76.5982C243.026 77.6574 242.46 78.631 241.709 79.4541C240.959 80.2773 240.042 80.9311 239.019 81.3721C237.996 81.8131 236.891 82.0311 235.778 82.0115C233.409 81.9698 231.139 81.0614 229.395 79.4581C227.652 77.8548 226.557 75.6679 226.318 73.3115C226.197 72.2039 226.313 71.0833 226.659 70.0241C227.005 68.965 227.572 67.9916 228.323 67.1686C229.074 66.3456 229.992 65.692 231.015 65.2511C232.038 64.8102 233.144 64.5922 234.258 64.6115C236.624 64.6557 238.892 65.5652 240.634 67.1683C242.375 68.7714 243.468 70.9568 243.708 73.3115Z" fill="#12C2E9"/>
<path d="M259.408 49.0015L257.708 42.3915L264.608 35.5015L266.298 42.1115L259.408 49.0015Z" fill="#263238"/>
<path d="M259.408 49.0013L266.018 50.7013L272.908 43.8113L266.298 42.1113L259.408 49.0013Z" fill="#263238"/>
<path d="M263.022 46.7185L261.693 45.3892L233.394 73.6876L234.724 75.0169L263.022 46.7185Z" fill="#263238"/>
</svg>
